<svg version="1.1" id="Layer_1" xmlns="http://www.w3.org/2000/svg" x="0" y="0" viewBox="0 0 571.6 95.2" xml:space="preserve"><style type="text/css">.st0{fill:#231f20}.st1{fill:#fff}</style><path class="st0" d="M2.5 45.5h4.8V11.8H2.5v-2h13.8c7.7 0 10.9 4.5 10.9 9.4 0 4.6-2.8 8-7 9 5 1 8 4.2 8 9.1 0 6.1-4.6 10.2-11.6 10.2H2.5v-2zm13.4-18.3c6.4 0 9.2-3.5 9.2-7.9 0-4.3-2.9-7.5-8.9-7.5H9.5v15.4h6.4zm.8 18.3c5.8 0 9.4-3.4 9.4-8.2 0-5-3.6-8.1-10.3-8.1H9.5v16.3h7.2zM39.9 45.5h3.8l11.6-33.7h-4.4v-2h13.2v2h-4.4l11.6 33.7h3.8v2H64.5v-2H69l-4.1-12H50l-4.1 12h4.6v2H39.9v-2zm24.3-13.9l-6.7-19.9-6.8 19.9h13.5zM87.4 45.5h4.8V11.8h-4.8v-2h12.9c7.3 0 11.8 4.4 11.8 10.6 0 5.5-3.4 9.1-8.4 10.4l8.6 14.8h4.2v2H111l-9.4-16.4c-.6.1-1.3.1-2 .1-1.9 0-3.8 0-5.2-.1v14.3h4.9v2H87.4v-2zM110 20.4c0-5.3-3.7-8.6-9.8-8.6h-5.8v17.3c1.6.1 3.5.1 5.3.1 6.1.1 10.3-3 10.3-8.8zM128.2 45.5h4.8V11.8h-4.8v-2h12.9c7.3 0 11.8 4.4 11.8 10.6 0 5.5-3.4 9.1-8.4 10.4l8.6 14.8h4.2v2h-5.7l-9.4-16.4c-.6.1-1.3.1-2 .1-1.9 0-3.8 0-5.2-.1v14.3h4.9v2h-11.8v-2zm22.5-25.1c0-5.3-3.7-8.6-9.8-8.6h-5.8v17.3c1.6.1 3.5.1 5.3.1 6.1.1 10.3-3 10.3-8.8zM168.9 45.5h4.8V11.8h-4.8v-2h24.4v8.4h-2.1v-6.4h-15.3v15.4h12.3v2.1h-12.3v16.2h15.3v-6.4h2.1v8.4h-24.4v-2zM208.4 45.5h4.8V11.8h-4.8v-2h11.9v2h-5v33.7h14v-6.7h2.1v8.7h-23v-2zM329.7 11.8h-4.4v-2h11.3v2h-4.7l8.6 32.3 8.9-29.1h1.3l8.9 29.1 8.6-32.3h-4.8v-2h11.3v2h-4.4l-10 36.5H359l-9-28.9-9 28.9h-1.3l-10-36.5zM382.1 45.5h3.8l11.6-33.7h-4.4v-2h13.2v2h-4.4l11.6 33.7h3.8v2h-10.7v-2h4.5l-4.1-12h-14.9l-4.1 12h4.6v2h-10.7v-2zm24.3-13.9l-6.7-19.9-6.8 19.9h13.5zM428.6 29.1c0-12 8.3-20 17.6-20 7.6 0 12.8 4.8 12.8 8.5 0 1.5-.8 2.5-2 2.5-1.1 0-1.8-.9-1.8-2.1 0-.9.4-1.6 1.2-2-1.3-2.4-5.1-4.9-10.2-4.9-9.3 0-15.4 8.1-15.4 17.9 0 10.1 6.6 16.9 14.7 16.9 4.2 0 8.2-1.5 11.9-4.6v-9.2h-10.6v-2h12.7v17.4h-2.1v-4c-3.6 2.9-7.3 4.5-12 4.5-8.8 0-16.8-7.1-16.8-18.9zM476.1 28.7c0-10.9 7.5-19.5 17.4-19.5 9.9 0 17.3 8.6 17.3 19.5s-7.4 19.5-17.4 19.5c-9.9 0-17.3-8.6-17.3-19.5zm32.4 0c0-9.7-6.3-17.4-15.1-17.4s-15.1 7.7-15.1 17.4 6.3 17.4 15.1 17.4 15.1-7.7 15.1-17.4zM532.1 13.9v31.7h4.9v2h-11.8v-2h4.8V11.8h-4.8v-2h6.6L554 42.9V11.8h-4.9v-2h11.7v2H556v35.9h-1.3l-22.6-33.8z"/><g id="fMPvQ9.tif_2_"><path class="st1" d="M261.6 12.8l.2-.2c1.3.3 1.2 1.6 1.6 2.6.3-.8-.7-1.5.1-2.3.2 1 .5 1.8.7 2.6.4-.8-.8-1.8.3-2.7.2.8.3 1.4.5 2.1.3-.6-.5-1.3.5-1.8.1.7.2 1.3.3 1.9.3-.9-.4-1.8.4-2.7.1.9.2 1.9.3 2.8h.2v-2.3h.3l.3 2.4h.2c-.2-1-.3-1.9.7-2.6 0 .3 0 .6.1 1.1.2-.4.4-.6.5-.8h.2c.1 1.1.1 2.1.2 3.2.1-.3.1-.6.1-1 0-.6 0-1.2.1-1.8.5-.1.4.3.4.6v2.8h.1c.1-.9.1-1.9.2-2.8h.1c.1.3.1.7.2 1.1.3-.6-.3-1.4.6-2v2.7h.2c0-.8.1-1.5.1-2.4.4.2.7.3.9.4v2.6h.1c.1-.8.1-1.6.2-2.4h.2v2h.2v-2.2h.2v1.9c.2-.6.3-1.3.5-1.9.1 1 .2 1.9.3 3.1.1-.9.2-1.7.2-2.4h.2v2.2h.1c.1-.4.2-.9.3-1.3.4 1.4.4 1.4 1 1.5v-1.3h.2v1.1h.2c.1-.3.1-.6.2-1h.1c0 .2.1.4.1.6.2-.1.4-.2.6-.4-.7 1-1.6 1.4-2.7 1.7l-2.7.6c.3.1.6.3.9.4v.2c-.5-.1-1-.1-1.4-.2 0 .1 0 .1.1.2l-.6.3c-.3.1-.6.1-.8.1 0 0 .1.1.2.3-.3.1-.5.1-.8.2.2.1.4.2.5.3-.2.1-.4.2-.5.3h.2c-.1.3-.1.8-.3.8-.8.4-1.6.7-2.3 1-.1.3-.1.5-.2.8 0 0 .2.1.5.3-.6.3-1.1.5-1.5.7h.1c-.4.3-.8.6-1.2.8.1.2.2.3.3.5-.3.2-.5.4-.8.7-.4.3-.9.6-1.3 1 .3.1.6.2 1 .3-1.1.4-1.7 1.6-3 1.2 0 0-.1 0-.1.1.8.2 1.5.3 2.1-.3.4-.4 1-.7 1.5-1 .2-.1.4 0 .8 0-.7.5-1.2.8-1.7 1.2-.5.3-.9.6-1.5 1h.5c-.1.2-.2.3-.3.5-.3.2-.7.4-.8.6-.3.4-.4 1-.6 1.4.1 0 .2.1.3.1-1.2 1.3-2.4 2.6-3.5 3.9.7.3 1 0 1-.7.3.1.4.2.7.4-.1-.3-.2-.5-.4-.9.4.2.6.4.7.5.1-.3.2-.6.2-.9.5.2 1 .4 1.5.5 0-.3.1-.5.1-.6.2.2.5.3.7.5-.1-1 1-.4 1.2-.9-.2-.4-.5-.7-.7-1.1l.1-.1c.5.4.9.7 1.5 1.2-.1-.3-.2-.4-.3-.7.8.4.4-.3.7-.5.2.2.4.3.7.5-.1-.3-.2-.5-.4-.8.4.3.5.4.8.6-.1-.3-.2-.4-.3-.8.4.3.6.4.8.5l.1-.1c-.4-.4-.8-.8-1.1-1.2l.1-.1c.4.3.9.6 1.3.9 0-.1 0-.2-.1-.2l1.2-.6c-.2-.1-.5-.3-.8-.5l.2-.2c.2.1.4.2.7.3-.2-.5-.3-.9-.5-1.3.2.1.5.2.7.2-.1-.3-.3-.6-.4-.8 0 0 .1 0 .1-.1l.4.4c.4-.3.7-.5 1.1-.7.2.2.4.3.7.5.2.1.5.3.7.4h-.2c-.3-.6-.7-1.2-1-2 1.4.5 1.4.5 1.2 1 .2.1.3.2.6.4 0-.2 0-.3.1-.5.3.1.5.2.8.3-.2-.3-.2-.4-.3-.5V28c-.1-.3-.2-.7-.4-1.1.4.1.7.2.9.3 0-.1.1-.1.1-.2-.2-.2-.5-.4-.7-.6l.1-.1.6.3.2-.2c-.3-.4-.6-.7-.9-1.1.3-.2.5-.4.7-.5-.2-.3-.5-.6-.9-1.1h.6c.2.1.3.2.5.4v-1.9c.2.2.3.5.5.7.1 0 .1 0 .2-.1-.1-.3-.1-.5-.2-.7.2-.3.5-.7.8-1.1-.1-.2-.2-.5-.3-.8.1 0 .1-.1.2-.1.1.3.3.5.4.8.1-.3.1-.6.1-.9 0-.3-.1-.6-.1-.9 1.4-.8 2.9-1.6 4.3-2.4l.3-.3c.3 0 .7-.2 1-.1 2 .9 4.5-.1 5.4-2.1.1-.2.5-.6.8-.5.9.2 1.9.5 2.8.7.2.1.5.2.7.4-.3-1.2-.7-2.3-.9-3.4-.1-1.1.1-2.2 1.1-3.1.1.2.1.4.2.5.2.5.6.9 1.2.7.5-.1.9-.4.9-1-.1-.6-.5-.9-1.1-.9h-1.1c.2-1.2.3-2.2.5-3.3-.3.8-.5 1.7-.6 2.5 0 .6 0 1.1-.5 1.5-.3.3-.5.8-.6 1.2-.4 1.5-.1 2.9.3 4.3-1-.2-1.9-.3-2.9-.5-.4-.1-.7.1-1 .5-.3.6-.8 1.1-1.2 1.6-.8.7-1.7 1.2-2.9.9-1.3-.4-1.6-1.4-.6-2.4.6-.5 1.3-.9 1.9-1.3 1.7-.9 2.1-2.1 1.2-3.8-.4-.8-.8-1.6-1.3-2.3-1.4-2.2-3.3-4-6-4.6-3.4-.8-6.8-.4-10.2.4-.3.1-.9.2-1 .4-.2.7-.8.7-1.2.9-.5.3-1.1.4-1.6.7-.4.2-.8.5-.4 1-.9.3-1.7.6-2.5 1 .2 1.2 1.4 1.3 2.2 2.1-1.3.3-2.4.7-3.5.9-1.2.3-1.3.4-.7 1.5-.2.1-.4.2-.6.2-1.9.7-3.8 1.4-5.7 2.2-.3.1-.5.4-.9.7 1.8.3 3.3.5 4.8.7-.1.3-.2.3-.3.4-.5.3-.9.5-1.4.8.5.4 1 .8 1.4 1.2.1 0 .1.1.2.1 1.1.2 2.3.4 3.4.6.2 0 .3.1.5.1-.1.2-.2.4-.3.8.7-.1 1.3 0 1.8-.2.8-.2 1.6-.7 2.4-.8 1.2-.2 2.3-.2 3.5-.2.4 0 1 .2.7.8-.2.4-.8.9-1.2 1-.8.1-1.4.1-2.1.5-1.1.6-2.3 1-3.4 1.6-.5.3-.7 1.1-1.1 1.6-.6.3-.9.7-.8 1.4.4-.1.8-.3 1.1-.4-.4 1.4-.8 2.7-1.2 4 0 .2-.3.3-.4.4-1.6 1.1-3.5 2-4.6 3.8-.4.7-1.1.9-2 .6-1.1-.4-2.3-.5-3.1-1.4-.2-.2-.6-.4-.9-.5-1.3-.4-2.6-.8-3.9-1.1-.7 1-1.9 1.4-1.8 2.7 1.3.3 2.5.5 3.7.8.7.2 1.4.3 2.1.5 0 0 0 .1.1.1.3.2.6.5.9.6.5.2 1 .3 1.5.4.5.2 1 .5 1.6.6.6.1 1.3.1 1.9-.1 1-.5 1.9-1.2 2.8-1.7.5-.3 1.1-.5 1.7-.7l.2.2c-.7 1-1.3 2-2 3 1.3-.9 3.3-4.5 3-5.6-.4.2-.7.4-1.3.8.7-2.6 1.4-5 2.1-7.5-.3 0-.6.1-1 .1.1-.3.3-.6.4-.9.8-.7 1.6-1.6 2.6-2.2 1.1-.6 2.5-.9 3.7-1.3.4-.1.8-.2 1.2-.4.5-.2 1-.6.7-1.2-.1-.4-.7-.8-1.1-.8-1.2 0-2.4.1-3.6.3-1.1.2-2.1.6-3.1.9h-.3c.1-.3.2-.4.3-.6-2-.6-4.2-.1-5.9-1.8.8-.3 1.4-.7 2.1-1v-.4c-1.5-.3-3-.5-4.5-.8 0-.1-.1-.1-.1-.2 2.2-.9 4.5-1.7 6.8-2.6-.3-.5-.4-.8-.6-1.1 1.2-.3 2.3-.7 3.4-1 .4-.1.8-.4 1.2-.5-.3-.3-.7-.6-1-.9l-1.2-.9c1.1-.5 2-.9 3-1.3-.3-.3-.4-.4-.5-.6.6-.3 1.1-.5 1.6-.8.5-.2 1.2-.3 1.4-.7.5-.8 1.2-.8 1.9-.9 2.1-.2 4.3-.5 6.5-.6 1.1 0 2.4.2 3.4.7 2.8 1.2 4.8 3.4 6.2 6.1 1 2 .7 2.8-1.2 3.8-1.3.7-2.6 1.3-2.3 3.1-.6-.3-.7-.7-.5-1.2.1-.2.2-.5.2-.7 0-.2-.1-.4-.1-.7-.1.1-.2.2-.3.4-.1-.6-.2-1.1-.3-1.6-.1.2-.2.4-.4.7-.1-.7-.2-1.4-.3-2.2-.2.4-.3.7-.4 1-.5-1-.4-1.9-.1-2.8h-.2c-.2.8-.5 1.7-.7 2.5-.7-1.1-.2-2.1 0-3.2-.3.7-.5 1.4-.8 2.1-.1 0-.1 0-.2-.1 0-.3-.1-.6-.1-.8h-.1c-.1.4-.2.8-.2 1.2-.1-.3-.2-.5-.3-.8.1-.5.3-1 .2-1.6 0-.4-.3-.8-.6-1.3 0 .6-.1 1-.1 1.5-.1.3-.3.5-.4.8l-.4-.4c.2-.9.4-1.9.7-2.8h-.2c-.1 1-.3 1.9-.4 2.9-.5-.4-1.1-.8-1.7-1.1-.3-.2-.7-.3-1.1-.5 0 .1-.1.1-.1.2 1.7.8 3.1 2.1 4.3 3.5.1.1.2.1.3.2v.4c-.4-.3-.8-.6-1.2-.8l-.2-.2s0-.1-.1-.1h-.1c-.1.4-.2.8-.2 1.3-.5-.6-.9-1.1-1.3-1.5-.1.6-.4-.2-.6-.2 0 .2 0 .4-.1.7-.9-.4-.5-1.3-.9-2.1.1.8.2 1.5.4 2.4-.2-.3-.3-.4-.4-.6l-.1.1c.2.3.4.7.6 1-.6 0-1.1 0-1.6.1-.2-.2-.4-.3-.7-.5-.1-.1-.1-.2-.2-.4-.1.3-.1.5-.2.9-.3-.4-.5-.7-.6-.9 0 .1-.1.2-.2.4-.2-.3-.3-.5-.5-.8.1.4.1.6.2 1-1.1-.4-.6-1.5-1.2-2.1.1.6.3 1.1.5 1.9-.4-.3-.5-.5-.9-.7.2.5.2.7.3 1l-.1.1c-.3-.3-.6-.6-.9-.8-.1 0-.1.1-.2.1 0 .3 0 .5.1.8-.5-.1-1-.1-1.5-.2.1.5.1.7.1 1-.2 0-.4 0-.7.1.3.1.4.1.6.1v.2c-.4 0-.7.1-1.1.1-.6 0-1.1.8-.9 1.4l.2.2v.2h.1c.2-.1.4-.3.7-.5.2.6.5 1.3.7 1.9 0-.4-.2-.8-.3-1.2-1-.6-1-1-1.1-1.5zm23.8 11.9c0 .5 0 1 .1 1.3l.6-.3c.3.2.5.3.8.5 0-.1.1-.3.2-.5h.4c1 .1.4.9.5 1.4.1-.2.2-.3.4-.6-.1.6-.1 1-.2 1.4-.4 1.2-.7 2.5-1.1 3.8-.4-.3-.9-.5-1.4-.9-2.1-1.3-1.7-.7-1.3-3 0 0 0-.1-.1-.2-.1.7-.2 1.3-.4 1.8h-.2c-.1-.2-.2-.5-.4-.8-.1.7-.2 1.3-.3 1.9-.1.7-.6 1-1.3.6-.8-.4-1.7-.8-1.4-2 0-.1-.1-.1-.2-.3-.2.3-.3.6-.5.9-.2.2-.4.4-.7.6-.2-.2-.5-.4-.5-.7-.2-1.2-.2-2.4.2-3.6.2-.7.3-1.6.2-2.3-.2-1.4-1.5-2-2.8-1.4-.9.4-1.3 1.4-1.2 2.6.1 1.2.4 2.4.4 3.7.1 1.3-.2 2.6-1 3.8-.1-.2-.2-.4-.2-.5-.1-.2-.1-.3-.3-.8-1.2 3.3-4 3.7-6.8 4.7.4-.6.7-1 .9-1.5-.1-.1-.1-.2-.2-.2-.4.2-.8.3-1.2.5-1.8.9-3.5 1.7-5.3 2.6-.2.1-.7.1-.7.1-.2-.6-.5-.3-.8-.2-.4.1-.7.3-1 .6-1.4 1-3 1.1-4.4 1-.7-.8-1.5-.2-2-.5.5-.4 1-.9 1.5-1.4l-.1-.1c-.9.5-1.8 1-2.7 1.6.9.2 1.7.6 2.5.7 1.6.2 3.3.1 4.7-.7 1-.6 2.1-.2 3.2-.9-.1.7-.1 1.1-.2 1.6-1.9-.6-3.6-.5-4.8 1.1-1.2 1.6-1 3.3.1 4.8-1.3 1.6-1.1 3.3-.3 5 .2.5.2.7-.1 1.1-1.5 1.9-1.9 4.1-1.6 6.6.2 1.3.3 2.7.3 4 0 .5-.3 1-.5 1.6-.4-.5-.7-.9-1.2-1.4.2.8.3 1.3.5 1.9-1.2.4-2.1.1-3.1-.4.6.8 1.3.9 3.2.8.6 2.7-1.1 4.8-2.6 4.7-.1-.3-.1-.6-.2-.9-.3-.6-.8-1-1.5-.8-.3.1-.6.5-.7.8-.1.7.4 1.1 1.1 1.3.3.1.5.1.9.2-1.1 2.3-3.2 2.8-5.4 3.2 2.5.2 4.5-.9 5.6-3.1.1-.2.3-.3.4-.4 2.3-.3 3.3-2.3 3.2-4.8 0-.2 0-.5.2-.6 1.4-1.1 1.2-2.6 1-4.2l-.3-2.7c-.2-1.7.1-3.4 1.2-4.8.5-.7 1-1 1.9-.8 1 .2 2.1-.1 3.2-.1l.1.1c-.2.2-.4.4-.7.5-1.3.5-2.2 1.4-2.5 2.7-.7 3 1.9 5.9 5.1 5.6.9-.1 1 .3 1.3.9-1.5.4-2.8.8-3.2 2.6-.3 1.5-.1 2.9 1.1 4-1.8 1-2.8 2.5-2 4.5 1.1 2.8 3.4 3.6 6 3.2.5.6.8 1.3 1.3 1.7.5.4 1.3.6 1.9 1-.8 2.3.5 3.9 3.1 4.2-.5.9-.9 1.7-.6 2.8.4 1.5 1.4 2.6 2.7 3.3 2 1 4.2.1 4.9-2 .4-1.1.2-2.2-.3-3.2.2 0 .3-.1.5-.1 1.5-.1 2.4-1 2.7-2.4.3-1.2.4-2.5 0-3.7 1.8-.7 3.3-1.7 3.4-3.8.1-2.1-.9-3.5-2.8-4.3.6-.9 1.6-1.5 1.3-2.7.4-.2.5-.7.3-1.5-.3-1.3-1.2-2.3-2.3-3 .3-.7.6-1.3 1.6-1.2 1.1.1 2.1-.6 2.7-1.5.7-1.1.8-2.2.4-3.5 1.8-.1 3.3-.8 3.9-2.6.3 1.3.5 2.4.8 3.6.1.3.4.6.7.8.2-.2.4-.5.6-.7.1-.1.1-.2.3-.3.1.3.2.5.2.7 0 1.1.4 1.9 1 2.8.9 1.3 1.6 1.3 2.8.4.3.4.6.9.9 1.2.4.4 1 .7 1.5 1 .3-.5.6-.9.8-1.4.2-.6.3-1.2.5-1.9 1 1.1 1.5 2.3 1.9 3.5.4 1.2.8 2.4 1.1 3.6.1 0 .1.1.2.1.7-1.4 1.5-2.7 2.1-4.1.6-1.4.9-2.9 1.4-4.6.2.5.3.8.5 1.1 1-1.3 1.1-3.1.2-4.3-.3-.4-.6-.7-.8-1.1-.2-.4-.2-.8-.3-1.2.2 0 .3-.1.3-.1 1.1.5 2.1.9 3.2 1.4.4-.6.8-.3 1.1.1.3.4.6.8 1 1.2 1.2-2.2 2.4-4.3 1.8-7.1.8.3 1.4.5 2.2.8-.7-4.4-3.5-6.7-7.5-8 .7-.2 1.2-.3 1.8-.5-1.5-1.1-3.1-1-4.7-.8-1.8.2-3.5.6-5.2-.3-.4-.2-.7-.6-1.1-1 1.7-.7 3.1-.6 4.3.2.9.6 1.8.7 2.8.5.6-.1 1-.4 1.1-1.1 0-.7.4-.9 1-1.1 1.3-.5 2.2-1.3 2.9-2.5.8-1.4.6-2.2-.8-2.8 1-1 1.7-2.1 2-3.4.2-1-.1-1.5-1.2-1.6-.1 0-.3 0-.6-.1 1.2-1.4 2.4-2.7 3.6-4.1h-.6c-1.2.2-2.4.3-3.7.5-.4.1-.7 0-.8-.5 0-.1-.4-.3-.6-.3-1.1.1-2.2.2-3.3.4-2.1.4-4 1.4-5.9 2.6-.3-.8-.5-1.5-.8-2.3-2 .7-3.6 2-4.7 3.7l-.6.9c-.3.4-.7.8-1 1.2-.3-1.1-.5-2.1-.7-3.1.7.2 1.4.3 2.1.5 0-1.9-1.1-3.2-1.9-4.6.3-.2.7-.3.9-.5.2-.2.3-.6.6-.9.4-.4.8-.8 1.3-1.2l-.1-.1c-.4.3-.9.7-1.3 1v-.2h-1.1c.1.4.2.8.3 1.1-.5-.1-1-.2-1.7-.3 1.2 1.8 2.6 3.1 2.9 5.3-.8-.2-1.5-.4-2.4-.7.9 1.9.7 4 2 5.7-.4-.1-.7-.3-1-.3h-.9l-.5.5-.6-.9c-.6-.9-.6-.9.2-1.7.3-.3.6-.5.8-.8l-.1-.1-1.6 1.6c.1-.3.1-.4.1-.5l-.2.2c-.3-.2-.5-.4-.8-.6.4-.5.8-.9 1.1-1.3h-.1c-.2.2-.5.4-.7.6l-.1-.1c.2-.2.3-.4.5-.6 0 0-.1 0-.1-.1-.2.2-.5.3-.7.5l-.3-1.2.2.2c.3-.5.6-1 .8-1.3-.1.1-.4.3-.6.5l-.1-.1c.3-.4.7-.7 1-1.1l-.2-.2c-.5.6-1 1.2-1.6 1.8-.1-.5-.2-.9-.2-1.3 0 0-.1.1-.3.1-.1-.4-.3-.7-.4-1.1-.1 0-.2 0-.6.1.4-.4.6-.7.8-1 .1-.2.1-.4.1-.7-.1 0-.2-.1-.3-.1.1-.3.2-.6.2-.8-.4.2-.9.6-1.4.7-.4.1-1 .1-1.3-.3-.1-.3-.2-.7-.3-1.1l-.6.9c-.2.1-.4.3-.6.4-.1 0-.1-.1-.2-.1.2-.5.4-.9.6-1.4-.1-.1-.2-.1-.2-.1-.2-.1-.5-.2-.7-.4.1-.2.3-.4.4-.6.1-.2.2-.5.3-.9-.6.3-1.2.5-1.4.8-.2.5-.5.2-.7.2-.1-.1-.2-.2-.3-.2h-.3c-.1-.2-.2-.4-.3-.7-.3.2-.6.5-1 .8-.1-.3-.2-.7-.4-1.3 0 .3-.1.4-.1.7-.2-.4-.4-.7-.5-.9-.4.4-.3.8-.3 1.3.1.8-.2 1.6-.4 2.5.2-.4.3-.7.4-.9.1-.2.3-.3.5-.5.1.6.2 1.3.3 2 .1-.3.3-.5.4-.8.4 1.2-.4 2-.3 3 .2-.5.4-1.1.6-1.6.1 0 .2 0 .3.1-.3 1.2-.6 2.3-.9 3.5h.1c.3-.9.5-1.8.8-2.7.1 0 .2 0 .2.1-.2.8-.3 1.6-.5 2.3h.2c.2-.8.4-1.6.6-2.6.8 1 .1 1.9.1 2.7l.6-2.1h.2v1.6h.1l.3-1.5c.1-.3.3-.5.4-.8v1.2c0 .3.2.6.3.9 0 .7-.1 1.4-.1 2.1h.2c.1-.9.3-1.8.4-2.7.1-.1.2-.1.3-.2 0 .6.1 1.1.1 1.6.1-.2.2-.4.2-.7h.3c-.1.6-.1 1.3-.2 1.9.2-.6.4-1.2.5-1.8-.2.3 0 .3.1.3zm17.8-20c0-.2 0-.5.2-.7.6-.8 1.3-1.5 2.1-2.5-.4.2-.7.4-.9.6-1.1 1.1-2.1 2.4-2.6 3.9-.6 1.8-.9 3.5.2 5.2.1.2 0 .5.1.9-.6-.4-1-.7-1.4-1l.3-2.7c-.6.5-.7 1.1-.6 1.8.1.4 0 .8 0 1.1 0 0-.2.1-.3.1 0-.1-.1-.1-.1-.2-.1.3-.2.6-.4 1.1.6-.3 1-.5 1.5-.7.2.3.5.7.7 1 .6-.6.7-1.1.3-1.8-.3-.5-.3-.8-.1-1.3.5-1.3 1.4-2.4 2.4-3.3.9-.7 1.8-1.4 2.9-2.2-1.6.5-2.5 1.7-3.9 2.6.6-1.8 2.2-2.4 3.4-3.4-.8.4-1.5.9-2.3 1.3-.3.2-.7.2-.6.6h-.5c-.2 0-.3-.2-.4-.4zm.5-3.9l-.3-.3c-1.2 1.2-2.5 2.2-3.4 3.6-1 1.4-1.5 3.1-2.2 4.7V9h.1c.2-.2.3-.5.6-.9v1.3c.4-1.1.6-2.3.9-3.4.3-1.1.8-2.2 1.7-3l-1.5 8.1c.2 0 .2-.1.3-.2.4-2 .7-3.9 1.1-5.9.3-1.5.7-2.9 2.2-3.7.1 0 .3-.3.5-.5zm-5.6 13.9c.3-.3.7-.5.8-.7.1-.3.1-.7.1-1-.5.1-.4-.3-.4-.6-.1-.4-.2-.8-.4-1.1h-.2c.1 1.1.1 2.2.1 3.4zm-4.4.4h.1c.5-1 1.1-2.1 1.6-3.1-.9.7-1.8 1.3-2.3 2.4.3-.3.6-.5 1.1-.9-.2.7-.3 1.2-.5 1.6zm1.7 1.5c1-.9.9-2.2 1.1-3.4-.4 1.1-.7 2.2-1.1 3.4zm-4.7-1.2c.7.6 1.4 1.1 2.1 1.6 0-.1.1-.1.1-.2-.4-.4-.9-.7-1.3-1.1l.5-.5c-.4.1-.8.1-1.4.2zm6.3-5c0 .4-.1.8-.1 1.1.7-1 .7-1.2-.1-1.4-.2.3-.3.6-.5.9 0 0 .1 0 .1.1.2-.2.4-.3.6-.7zm-17.9 1.9c.1.1.2.1.4.2.2-.6.4-1.1.7-1.7-.1 0-.1-.1-.2-.1-.3.6-.6 1.1-.9 1.6zM261 23.7v.2c.8.2 1.5.5 2.3.7 0-.1 0-.1.1-.2-.8-.2-1.6-.4-2.4-.7z"/><path d="M255.9 59.4c.2 1.5.4 3-1 4.2-.1.1-.2.4-.2.6.2 2.5-.9 4.5-3.2 4.8-.2 0-.4.2-.4.4-1.1 2.2-3.1 3.3-5.6 3.1 2.2-.4 4.3-.9 5.4-3.2-.4-.1-.6-.1-.9-.2-.6-.2-1.2-.6-1.1-1.3 0-.3.4-.7.7-.8.7-.2 1.2.2 1.5.8.1.3.2.6.2.9 1.6.2 3.2-2 2.6-4.7-1.9.1-2.6-.1-3.2-.8 1 .4 2 .8 3.1.4-.1-.6-.3-1.1-.5-1.9.4.5.7.9 1.2 1.4.2-.6.5-1.1.5-1.6 0-1.3-.1-2.7-.3-4-.4-2.4 0-4.6 1.6-6.6.3-.4.3-.6.1-1.1-.9-1.7-1-3.3.3-5-1.1-1.6-1.4-3.2-.1-4.8 1.2-1.6 2.9-1.7 4.8-1.1.1-.5.1-1 .2-1.6-1.1.7-2.2.3-3.2.9-1.4.8-3.1.9-4.7.7-.9-.1-1.7-.4-2.5-.7.9-.5 1.8-1 2.7-1.6l.1.1c-.5.5-1 .9-1.5 1.4.5.3 1.3-.3 2 .5 1.4.1 2.9 0 4.4-1 .3-.2.6-.4 1-.6.2-.1.6-.4.8.2 0 0 .5 0 .7-.1 1.8-.8 3.6-1.7 5.3-2.6.4-.2.8-.3 1.2-.5.1.1.1.2.2.2-.3.4-.6.9-.9 1.5 2.7-.9 5.6-1.3 6.8-4.7.2.5.2.6.3.8.1.1.1.3.2.5.9-1.2 1.1-2.5 1-3.8-.1-1.2-.3-2.5-.4-3.7-.1-1.3.3-2.2 1.2-2.6 1.3-.6 2.6 0 2.8 1.4.1.8 0 1.6-.2 2.3-.4 1.2-.3 2.4-.2 3.6 0 .2.3.5.5.7.2-.2.5-.4.7-.6.2-.2.3-.5.5-.9.1.2.2.3.2.3-.2 1.2.7 1.6 1.4 2 .6.3 1.1.1 1.3-.6.1-.6.2-1.3.3-1.9.2.3.3.5.4.8h.2c.1-.6.2-1.2.4-1.8.1.1.1.2.1.2-.4 2.3-.8 1.7 1.3 3 .5.3.9.6 1.4.9.4-1.3.7-2.5 1.1-3.8 0 .4 0 .8-.1 1.2h.2c.1-.2.2-.4.2-.5 0 .3.1.6.1.9h.1c.1-.4.2-.8.3-1.1h.1c0 .5 0 1.1-.1 1.6h.2c.1-.5.3-1 .4-1.5.4.8-.9 1.6.4 2.3v-2.1c.2.5.3 1.1.3 1.6-.1.7.1 1 .8 1.2 0-1 .8-2.1-.4-2.9-.6-.4-1-.9-1.6-1.4-.3.6-.4 1.1-.6 1.5.1-.6.2-1.1.4-1.7-.1 0-.1-.1-.2-.1-.2.4-.3.7-.5 1.1.1-.4.1-.8.2-1.4-.2.3-.3.5-.4.6-.1-.5.5-1.3-.5-1.4.1-.7-.4-1.1-1-1.4.2.6.4 1 .6 1.5-.1.2-.2.4-.2.5-.3-.2-.6-.3-.8-.5 0-.4-.1-.8-.1-1.3 0-.3 0-.7-.5-.5-.3-.3-.5-.6-.8-.9v-.2s0-.1.1-.1c.6.4 1.3.8 2 1.3-.1-.2-.2-.4-.3-.5l.3-.3c.9 1.1 1.8 2.1 2.7 3.2l.1-.1c-1.1-1.4-2.2-2.8-3.7-3.9-1.3-.9-2.5-1.9-3.8-2.8V18c.3 0 .5.3.7-.2.2-.3.7-.5 1.4-.8-.1.4-.2.7-.3.9-.1.2-.3.4-.4.6.2.1.5.2.7.4.1 0 .1.1.2.1-.2.5-.4.9-.6 1.4.1 0 .1.1.2.1.2-.1.4-.3.6-.4-.1.3-.2.5-.3.8.3-.1.8.8 1-.1.1-.2.2-.3.3-.5.4.5.9.4 1.3.3.5-.1 1-.5 1.4-.7-.1.2-.1.5-.2.8-.6.1-1.2.2-1 1.1.4-.3.8-.7 1.3-1 0 .2 0 .5-.1.7-.2.3-.4.5-.8 1 .4-.1.5-.1.6-.1.1.3.3.7.4 1.1.1-.1.2-.1.3-.1.1.4.1.8.2 1.3.6-.7 1.1-1.3 1.6-1.8l.2.2c-.3.4-.7.7-1 1.1l.1.1c.3-.2.5-.4.6-.5-.2.3-.5.8-.8 1.3l-.2-.2c.1.4.2.7.3 1.2.3-.2.5-.3.7-.5 0 0 .1 0 .1.1-.2.2-.3.4-.5.6l.1.1c.2-.2.5-.4.7-.6h.1c-.4.4-.7.8-1.1 1.3.3.2.5.4.8.6l.2-.2c0 .1-.1.3-.1.5l1.6-1.6.1.1c-.3.3-.6.5-.8.8-.8.8-.8.8-.2 1.7l.6.9.5-.5c-.3.7-.6 1.4-1 2.2v-2c-.2.5-.4 1.1-.4 1.6 0 .2.1.5.3.5 1.5.8 3.2.9 4.9.9 0-.1.1-.1.1-.2-.9-.5-1.9-1-2.8-1.5-.1.4-.2.7-.2 1 .1-.7.1-1.3-.5-1.8-.2-.2-.2-.5-.4-.7h.9c.3 0 .6.2 1 .3-1.4-1.7-1.1-3.8-2-5.7.9.3 1.6.5 2.4.7-.3-2.1-1.7-3.5-2.9-5.3.7.1 1.2.2 1.7.3-.1-.4-.2-.7-.3-1.1h1.1v.2c.4-.3.9-.7 1.3-1l.1.1c-.4.4-.9.8-1.3 1.2-.2.3-.3.6-.6.9-.2.2-.5.3-.9.5.8 1.4 1.9 2.7 1.9 4.6-.7-.2-1.4-.3-2.1-.5.2 1 .5 2 .7 3.1.4-.4.7-.8 1-1.2 0 .1.1.3 0 .4-.1.3-.3.6-.5.9h-.5c.5.4.9.6 1.2.9l-.9-.3c0 .1-.1.1-.1.2.3.2.5.4.8.6.2.2.3.5.5.7.1.1.1.2.2.4-.1.1-.2.1-.4.2h-.3c.6.5 1.2.9 1.8 1.4-.2-.5.2-.3.5-.1.3.2.5.4.7.6l.2-.2c-.2-.4-.4-.8-.7-1.1l-.2-.2c.2 0 .3.1.5.1 0-.1.1-.3.1-.4.2.1.3.2.4.3.1.1.1.3.2.5.1 0 .2-.1.2-.1-.2-.5-.5-1-.7-1.5.2.2.5.5 1 .9-.2-.6-.3-1-.5-1.5 0 0 .1 0 .1-.1.2.3.3.5.5.8.1.5.2 1.1.3 1.5.1.3.4.6.6.9.5-.4.4-.4-.1-.9-.3-.2-.3-.7-.5-1-.1-.2-.2-.3-.3-.5l.3-.9c.1.5.3 1 .4 1.7.5-.6.5-1.1.1-1.5.1-.1.3-.2.4-.3.1.2.1.4.2.6.3-.6 0-1.1-.3-1.5.5.1.7-.1.5-.5.2.1.5.2.7.2 0 .3-.1.6 0 .8 0 .3.2.6.2.9.1 0 .2-.1.3-.1-.3-.5.4-1.3-.5-1.7-.1-.1-.2-.3-.3-.5.2 0 .3.1.5.1-.1-.4-.1-.8-.2-1.1.3.3.6.7.9 1v.8c-.4.4-.4 1.5.2 1.9-.1-.6-.2-1.3-.2-1.9.5.2.8 0 .8-.5 0-.2.1-.5.2-.7.2-.1.5-.2.7-.2.5.1 1 .9 1.5 0l.3.3c0 .1-.1.2-.1.2s.1 0 .1.1c.1-.1.1-.2.2-.3.5-.2 1-.5 1-1.2.1.3.3.5.4.8l1.5-.9c.1-.1.1-.3.1-.5.2 0 .3 0 .5-.1.4-.1.7-.3 1.1-.4l-1.3 1.3c.1.2.2.5.4.8-.6-.5-1.7-.2-2.1.6-.4.3-.7.5-1.1.8.3.3.6.7.9 1 .1.1.2.1.3.1.1.1.3.1.4.2-.2.1-.4.2-.7.4 0 .2-.1.5-.1.7-1.2-.1-1.8.6-1.6 2-.2-.1-.3-.1-.6-.2.3.7.2.8-1.2 1.1.3.1.5.2.8.4-.7.2-1.2.4-1.7.6.1.3.1.6.2.9-.2 0-.4-.1-.7-.2.2.3.2.5.3.6-.7.2-1.4.3-2 .5v.2c.6-.1 1.1-.1 1.8-.2-.1.3-.2.4-.3.6 1.1.2 2.2.4 3.3.5.1 0 .2.1.2.2.8.8 1.7.6 2.6.3.3-.1.7-.6.7-.9 0-.5.3-.7.7-.9.6-.3 1.2-.5 1.6-.9.7-.6 1.3-1.3 1.8-2.1.5-1 .2-1.5-.9-1.7-.2 0-.4-.1-.5-.2.3-.4.5-.8.8-1.2 1-.6 1.3-1.6 1.5-2.7.2-.9-.1-1.1-1-1.2-.4 0-.9-.2-1.3-.3.4-.3.8-.6 1.1-.8-.3-.5-.6-.9-.8-1.3.2.2.3.4.5.5l.6.3c.2-.3.5-.5.7-.8.1-.1.1-.3.2-.3.4-.4.8-.7 1.2-1l-.1-.1c-1 .1-1.9.3-3 .4.2.4.3.7.5.9-.2-.3-.4-.6-.7-.8-.1-.1-.3 0-.4 0-.3-.1-.5-.2-.8-.2 0-.2 0-.5-.1-.8-.8.1-1.5.1-2.2.2-.4.1-.8.3-1.3.5h-1.3c.1.2.1.3.1.3-.3 0-.7-.1-1 0-.9.4-1.7.8-2.5 1.2-.2.1-.3.4-.4.6-.5-.3-.5 0-.5.3-.1 0-.2-.2-.3-.1-.6.6-1 0-1.3-.4-.2-.2-.3-.5-.4-.7-.4-.7-.7-.7-1.2 0l-.4.4c-.3.1-.5.3-.8.4.2.2.3.4.4.5l-.6-.3c-.6.3-.6 1.1-1.3 1.2 1.1-1.8 2.7-3 4.7-3.7.3.8.5 1.5.8 2.3 1.8-1.2 3.7-2.2 5.9-2.6 1.1-.2 2.2-.3 3.3-.4.2 0 .5.2.6.3.1.5.4.6.8.5 1.2-.2 2.4-.3 3.7-.5h.6c-1.2 1.4-2.3 2.7-3.6 4.1.3 0 .4.1.6.1 1 .1 1.4.5 1.2 1.6-.3 1.4-1 2.5-2 3.4 1.4.6 1.6 1.5.8 2.8-.7 1.1-1.6 2-2.9 2.5-.5.2-.9.5-1 1.1 0 .6-.5.9-1.1 1.1-1 .2-1.9.1-2.8-.5-1.2-.8-2.7-.8-4.3-.2.5.4.7.8 1.1 1 1.7.8 3.5.5 5.2.3 1.6-.2 3.2-.3 4.7.8-.6.2-1.1.3-1.8.5 4.1 1.3 6.9 3.6 7.5 8-.7-.3-1.4-.5-2.2-.8.7 2.8-.5 4.9-1.8 7.1-.4-.4-.6-.8-1-1.2-.3-.3-.7-.7-1.1-.1-1.1-.5-2.1-.9-3.2-1.4 0 0-.1 0-.3.1.1.4.1.8.3 1.2.2.4.5.7.8 1.1.9 1.3.9 3-.2 4.3-.1-.3-.3-.6-.5-1.1-.5 1.7-.8 3.2-1.4 4.6-.6 1.4-1.4 2.7-2.1 4.1-.1 0-.1-.1-.2-.1-.4-1.2-.7-2.4-1.1-3.6-.4-1.2-.9-2.4-1.9-3.5-.2.7-.3 1.4-.5 1.9s-.5.9-.8 1.4c-.5-.3-1-.6-1.5-1-.4-.3-.6-.8-.9-1.2-1.2 1-1.9.9-2.8-.4-.6-.8-1-1.7-1-2.8 0-.2-.1-.4-.2-.7-.1.2-.2.3-.3.3-.2.2-.4.5-.6.7-.2-.3-.6-.5-.7-.8-.3-1.1-.5-2.3-.8-3.6-.7 1.8-2.1 2.5-3.9 2.6.4 1.3.3 2.4-.4 3.5-.6 1-1.6 1.6-2.7 1.5-1 0-1.3.5-1.6 1.2 1.1.8 1.9 1.7 2.3 3 .2.8.1 1.3-.3 1.5.4 1.3-.6 1.9-1.3 2.7 1.9.8 2.9 2.2 2.8 4.3-.1 2.1-1.5 3.1-3.4 3.8.5 1.3.3 2.5 0 3.7-.3 1.4-1.2 2.3-2.7 2.4-.1 0-.2.1-.5.1.6 1 .7 2.1.3 3.2-.8 2.1-3 3.1-4.9 2-1.3-.7-2.4-1.7-2.7-3.3-.3-1 .2-1.9.6-2.8-2.6-.3-3.9-1.9-3.1-4.2-.6-.3-1.4-.5-1.9-1-.5-.4-.8-1.1-1.3-1.7-2.7.4-4.9-.4-6-3.2-.8-2 .3-3.5 2-4.5-1.2-1.1-1.4-2.5-1.1-4 .3-1.7 1.7-2.2 3.2-2.6-.3-.6-.5-1-1.3-.9-3.2.3-5.8-2.6-5.1-5.6.3-1.3 1.2-2.3 2.5-2.7.2-.1.4-.3.7-.5l-.1-.1c-1.1.1-2.2.3-3.2.1-.9-.1-1.4.2-1.9.8-1.1 1.4-1.4 3.1-1.2 4.8.3.8.4 1.7.5 2.6-.9-3.1-.8-6 1.3-8.7-1.7 1.4-2.5 4-2.2 6 .2 1.4.5 2.7.5 4.1 0 .7-.3 1.5-.4 2.2.2-.3.5-.6.6-1 .1-.8.1-1.7.2-2.6zM287 35.3h.2c.1.2.2.4.3.7.5-.6.9-1.1 1.4-1.7-.5.2-.9.3-1.3.5.2-.3.3-.7.5-1 .1-.3.2-.6.3-.8 0-.2-.1-.4-.1-.6.1 0 .2 0 .5.1.1-.1.3-.2.7-.5-.7-.3-1-.4-1.6-.7.4.9.2 1.3-.6 1.7.1-.3.1-.5.2-.9-.2-.1-.3-.2-.5-.2-.7-.2-1.5.1-1.6.7-.1.5-.2 1-.3 1.6-.2 1-1 1.5-1.7 2.1.2.8.7 1.6 1.6 2 .4.2.7.1.7-.3-.4-.2-.7-.3-.9-.6-.1-.1.2-.5.3-.7.1-.2.3-.3.4-.5 0 .1 0 .3-.1.5.6-.5 1-.9 1.5-1.3-.1 0 0 0 .1-.1zm17-3.9h.7c-.5-.6-.6-.6-.8-.1-.2 0-.3-.1-.5-.1.1.4.2.7.6.2zm-34.4 19.5c-.2.3-.3.7-.5 1l.1.1c.1-.2.3-.4.4-.6.1 0 .2-.1.3-.1-.1.7.7.5 1 .8.5-.7 1.1-.8 1.7-.5.8-1.2 1.6-2.3 2.5-3.6-.7-.3-1-.9-1.8-.4-.7.4-1.5.5-2.2.6-.7.1-1.2.3-1.6.9-.2.5-.5 1 0 1.5.1.1.1.2.1.3zm-5.7-10.4c.1-.2.2-.5.3-.7.1.2.1.4.2.7.4-.7 1.6-.2 1.9-1.1.1 0 .2 0 .5.1-.2-.3-.2-.5-.3-.7 1.1 0 1.3-1 1.9-1.7 0-.3.1-.5.1-.8-.3 0-.6-.1-.8-.1-.1 0-.3.1-.4.2-.3 0-.6.1-.9.1.2-.5.4-.9.7-1.4-1.7.8-3.2 1.5-4.7 2.2-.2.1-.4.2-.4.4-.1.7-.2 1.5 0 2.2.4 1.6 3.1 3.4 5.1 2.7-.7-.1-1-.7-1.8-.6-.5.1-1-.2-1.5-.4-.1-.5 0-.8.1-1.1zM277 24.9c-.1.1-.3.2-.4.3.6-.1 1.3.3 1.8-.3H277c.4-.1.7-.2 1.1-.2v-.3h-1.6c0 .2 0 .4-.1.6.3-.1.5-.1.6-.1zm-11.2 27.4c-.1.2-.2.4-.4.6 1.1-.5 1.7-1.4 2.4-2.2l-.2-.2c-.2.1-.3.2-.5.3.1-.4.3-.7.4-1.1-.1-.5-.1-.9-.2-1.4-.3 0-.5 0-.6.1-1 .7-2 .9-3.2 1-.4 0-1-.1-1.1.5-.2 1.1-.6 2.1-.1 3.2.2.5.6 1.1 1.1 1.3l.2-.2-.9-.9c.1-.2.3-.4.4-.5.3-.2.7-.4 1.1-.6-.1.3-.1.5-.1.6l1.5-.9c.1.2.1.3.2.4zm43-2c-.3.8-.3.8.3.8.2.1.5.2.7.3.2 0 .4.1.5.1.2-.1.3-.4.5-.6-.1.3-.2.6-.4.9l1.2.6c.1-.3.2-.6.2-.7.3.2.7.5.8.4.7-.4.6.1.7.5.1 0 .2-.1.2-.1.1.3.2.6.3 1 .4-.8.8-1.4 1.1-2.1.5-1.2 1-2.4.5-3.6-.2-.5-.1-.8.3-1.2.6.2 1.1.4 1.8.7-.2-.7-.2-1.3-.5-1.8-.7-1.1-1.5-2.2-2.5-3.2-.6-.6-1.4-1-2.1-1.4-.4-.2-.9-.8-1.4-.1-.1-.2-.3-.4-.4-.7-.3.3-.4.5-.5.6 0-.2.6-.8-.4-.6 0-.1 0-.2.1-.3.5-.2 1-.5 1.7-.8-.7-.1-1.3-.4-1.8-.3-1.3 0-2.6.2-4 .3-.2 0-.3.4-.5.6-.1-.2-.1-.4-.3-.5-1.1-.2-2.2-.5-3.2-.6-.3 1.3-.6 2.6-1 4.1.2-.3.3-.5.4-.6h.1c-.1.4-.3.7-.4 1.1.1 0 .1.1.2.1.2-.4.4-.7.5-1.1.3-.9.8-1.2 1.6-.7-.3.2-.5.4-.8.6-.2.2-.4.5.1.6.2 0 .4-.1.6-.2.2-.1.3-.4.4-.3.6 0 .8-.3 1-.8.1-.1.3-.2.4-.3.1 0 .1.1.2.1-.2.4-.5.9-.7 1.3.1 0 .1.1.2.1.4-.7.9-1.3 1.3-2 .1 0 .1.1.2.1-.2.3-.4.6-.6 1 0 0 .1 0 .1.1.3-.2.5-.4.9-.7l-.7 1.4c.1 0 .1.1.2.1.3-.3.6-.5.9-.8l.1.1c-.2.2-.3.4-.5.6.1 0 .1.1.2.1l1.2-1.5c0 .1.1.1.1.2.3-.1.6-.2.8-.3l-.9 2.1c.1.1.2.1.2.2.2-.3.4-.7.7-1 .2-.2.4-.3.6-.5l.3-.3c-.1 1-.5 1.8-1.1 2.5-.1 0-.2-.1-.3-.1-.3.2-.7.3-1 .5-.1-.2-.1-.4-.2-.7-.3.5-.5.8-.7 1.1 1.1.3 1.6.1 2.1-.6-.1.3-.1.6-.2 1 .2-.1.4-.2.5-.3l.6-1.2c-.1.3-.3.6-.4 1-.1.2 0 .5-.1.7h.2c.3-.7.6-1.3 1-2 .1 0 .1.1.2.1-.1.1-.1.3-.2.5.4-.4.8-.7 1.1-1.1.3.6.6-.2.8 0 0 .9.5.1.9.2l-.7.7c-.1.1-.3.2-.4.3 0-.1 0-.3-.1-.4-1 .2-1.9 1.1-1.7 1.8.2.5.9.8 1.5 1.3-.1-.6-.1-1-.1-1.3l-.1-.1c0 .2-.1.3-.1.5-.1 0-.1-.1-.2-.1.1-.3.1-.5.3-.9-.3.2-.4.2-.6.3 0-.1-.1-.2-.1-.2l.9-.3c.5.1 1.1.1 1.6.2l.6.3c-.7-.1-.9.2-.9.8.4-.1.7-.2 1.2-.3-.2.4-.4.7-.4.8.3.2.5.4.6.5.5-.7 1-1.4 1.6-2.1-.4.8-.9 1.4-1.3 2.1-.2.3-.2.8-.3 1.1 0 0-.2 0-.3-.1-.6-.1-1.1-.4-1.3-1.1-.3.1-.5.2-.9.3.6.5 1.2 1 1.8 1.4.2-.3.3-.4.4-.6-.1.4-.1.8-.2 1.3-.6-.6-1.2-1.1-1.9-1.7 0 .3.1.3.1.4l-.5-.5c-.5-.4-.9-.9-1.5-1.2-1.5-.7-3.1-.9-4.8-1.1-.8-.1-1.5-.3-2.3-.3-.8 0-1.6 0-2.4.1-.6 0-1.2.1-1.8.2l.3 1.2c.2-.4.3-.6.4-1v1.1h.1c.1-.3.2-.7.4-1.2.1.5.2.7.3 1.1.2-.4.3-.7.4-.9.2.3.3.6.5.8 0 0 .1 0 .1-.1v-.7l.6.6c.1-.2.1-.4.1-.6.2.2.3.4.5.6.1-.2.2-.4.3-.7l1.8 2.4c-.3 0-.6-.1-.6 0l-.3.9c.1 0 .1 0 .2.1.2-.2.4-.4.7-.6.2.3-.7.6.1.8-.1.6-1 .9-.7 1.7-.8-.2 0-.8-.1-.9h-1.3c-.1 0-.3.2-.3.4 0 .1.1.3.1.4l-.2.2c-.3-.2-.6-.5-1-.8.2.6.4 1 .5 1.5-.3-.4-.6-.7-.9-1.1-.7-1.1-1.4-2.1-2.2-3.3-.2.1-.4.4-.6.6l.1.1c.1-.1.2-.1.4-.3 0 .4-.1.8-.1 1.2.2-.2.3-.3.5-.4-.2.9-.5 1.7-.8 2.5-.2.6-.3 1.3-.4 1.9h-.1c0-.2.1-.5.1-.8-.2.1-.4.2-.5.2-.1-.2-.1-.3-.1-.5.3-.5.7-1.1 1-1.6-.1 0-.1-.1-.2-.1-.4.5-.8.9-1.1 1.3 0 0 0-.2-.1-.3-.5.3-1 1.4-1 2 0 .3-.2.7-.2 1-.1 0-.1-.1-.2-.1l.3-1.2h-.2c-.1.2-.3.4-.4.7l-.1-.1c.2-1.1.5-2.2.7-3.3-.4.3-.8.5-1.3.8 0-.1-.1-.3-.1-.3-1.1-.2-1.5.2-1.2 1.4-.3 1.8-.1 3.5.9 5.2.2-.4.3-.7.4-.9.2-.3.3-.7.6-1 .7-.6 1.3-1.2 1.1-2.3 0-.2.3-.4.5-.6-.2.5-.3 1-.4 1.5.2.1.3.2.5.3-.4.6-.8 1.3-1.2 1.9-.2 1-.4 2 .6 2.7 0 0 .1-.1.2-.1-.2.9.1 1.4.7 1.8.5.3.6-.2.8-.5 0 .1 0 .3.1.5.4-.6.6-1 .9-1.5-.1.6.4 1.5 1.1 1.9.3-.5.6-1.1.9-1.6.1 0 .2 0 .3-.1-.1.9-1 1.4-.6 2.4.1-.3.3-.6.5-1-.1.5-.1 1-.1 1.4.1 0 .1.1.2.1.2-.2.5-.3.5-.5.2-.5.5-1.1.5-1.7 0-1 .7-1.5 1.4-1.9-.2.3-.4.5-.7.8l.1.1.6-.3s0 .1.1.1c-.2.1-.3.2-.4.3.6 1.2 1.2 2.3 1.8 3.5.2-.1.3-.2.5-.3l.1.1c-.2.2-.4.4-.5.6 0 0 0 .1.1.1.3-.1.7-.1 1.1-.2-.3.4-.6.7-.9 1.1h.2V65c.1 0 .1 0 .2.1.6-.9 1.2-1.7 1.6-2.7.6-1.2 1-2.5 1-3.8-.2.1-.3.2-.5.2.5-.7 1-1.3 1.6-2.1l.5 1c.7-1.5.5-2.8-.4-4.1-.5-.7-1.3-1.3-1.1-2.3 0 0-.1-.1-.2-.1l.6-.9c-.1.3-.2.6-.3.8h.1c.1-.3.3-.5.5-.8zm-39.3 23c-.4.4-.7.8-1.1 1.2-.2.2-.5.4-.8.6.2.2.5.3.7.5h.1c.1-.3.3-.5.4-.8v.5c.4-.5.7-.9 1-1.4l.1.1-.3 1.2c.5-.3.9-.6 1.3-.8 0 .1.1.2.2.5.2-.5.3-.9.5-1.3-.1.6-.2 1.3-.2 1.9h.2c.2-.8.4-1.5.6-2.4-.3.3-.5.4-.6.5-.3-.2-.5-.4-.8-.4-.5-.3-1-.6-1.3.1zm.4-5.4l-.3-.3c-.3.2-.5.5-.8.8l.3.3c.1-.2.2-.4.3-.5 0 .4-.1.7-.2 1 0 0 .2.1.3.2v1c.3.2.6.4 1 .7-.1-.8-.2-1.4-.3-2.1.1 0 .1 0 .2-.1.3.4.7.8 1 1.2.1 0 .1-.1.2-.1-.1-.5-.2-1-.4-1.6l1.1 1.1.1-.1c-.2-.2-.4-.5-.6-.7h.3c-.5-.7-1.1-.9-1.8-.6 0-.2 0-.3-.1-.5-.1 0-.2.2-.3.3zm3.8 9.6c-.2.6-.4 1.3-.7 1.9.1 0 .4-.1.5-.3.3-.8.5-1.6.7-2.4-.1 0-.1 0-.2-.1-.1.4-.2.6-.3.9v-.3c-.7.1-1.3.2-2 .4-.2.1-.5.3-.6.5-.4.7.1 1.3.4 1.9.3-.1.6-.1 1-.2.3-.7.7-1.5 1.2-2.3zm-12.4-22.1v.7c.1 0 .1 0 .2.1.3-.6.6-1.2.9-1.9.1-.1-.1-.4-.2-.6-.1-.6-.3-1.2-.5-1.9-.3.3-.5.5-.9.8.1-.3.1-.5.1-.6-1.4.9-2.3 2.5-1.5 4.4.1-.4.1-.8.2-1.2h.2c0 .2 0 .4.1.8l.4-.4c.2.5.5.9.7 1.4.1-.2.1-.5.1-.7 0-.3.1-.6.2-.9zm34.2-12.9c.3.2.7.3 1.1.5-.3-.6-.5-1-.8-1.4-.1.3-.2.5-.3.9-.5-1.1 0-1.9.4-2.8h.2c0 .4.1.8.1 1.3.2-.4.3-.7.4-1h.1v.5c.2-.2.3-.4.4-.6.1-.2.2-.4.4-.6v.1c-.1.2-.1.5-.2.7.3-.2.4-.4.6-.7.1-.2.2-.4.3-.5.2-.3.5-.7.7-1-.1.3-.2.7-.4.9-.4.6-.8 1.2-.6 1.9.6-1.1 1.3-2.1 1.9-3.1.1 0 .1.1.2.1-.1.2-.2.4-.2.5l.1.1c.2-.3.5-.6.7-.9.5.9.6 1.4.3 1.9-.1-.1-.2-.2-.3-.4h-.2c.7 1.1.5 2.1-.2 3 1.4-1.3 1.6-4.2.4-5.3-.3.1-.6.1-.8.3-.2.2-.4.5-.6.7h-.1v-1.1c-.4.6-.7.9-.9 1.3l-.1-.1c.2-.4.4-.7.6-1.1-.7.3-1.3.4-1.9.7-.4.2-.8.6-1.2.9-.2.2-.3.4-.5.6-.2.1-.2.4-.3.6-.3 1.3-.8 2.5.7 3.1zm-35.9 5.1c.1-1.3-.5-1.8-1.5-1.4-.3-.3-.6-.7-.8-.9-1 .5-1.3 1.3-1.2 2.2.1.8.4 1.5.7 2.3h.2v-1c.3.4.5.6.6.7.2-.2.4-.4.6-.5.2 0 .5.1.7.2.2-.4.3-.8.5-1.2 0 .4-.1.7-.1 1.1h.2c-.1-.7.7-1.3.3-2.2-.1.4-.2.5-.2.7zm15 23.9c.2.4.3.8.5 1.4.1-.4.1-.6.2-1l.6 1.2c.2-.3.4-.4.4-.5.5.1.9.3 1.3.4 0-.3.1-.5.1-.8.2.2.4.4.6.5l.1-.1c-.2-.3-.4-.7-.6-1l.6-.3c-.2-.3-.3-.5-.4-.7.1 0 .2-.1.3-.1-.1-.3-.2-.7-.2-1-.8.1-1.9-.5-2-1.3-.3.2-.6.4-.7.6-.2 1-.5 1.9-.8 2.7-.3.2-.7.4-.8.6-.1.2.1.6.1.9h.3c.1-.4.3-1 .4-1.5zm16-28.6c-.1.3-.2.6-.3 1 1.8-1.9 1.8-1.9 1.4-2.5-.3.4-.6.9-1 1.3.2-.4.3-.8.5-1.2.3-.5.6-1 1-1.5l.6-.9.1.1c-.1.3-.3.5-.4.8.5-.2.9-.6.7-1.1-.2-.4-.6-.7-1-1-1-.6-1.1.5-1.7.8.1-.1.2-.3.4-.5-1.2.1-2.1.4-2.5 1.5-.4 1.1.4 1.9 1.2 2.5.1-.2.3-.4.5-.7-.1.4-.3.8-.4 1.3 0 0 .2.1.4.1-.1.2-.1.4-.2.8.3-.4.5-.6.7-.8zm-6.8.6c-.5-.1-1.1-.3-1.6-.2-.3.1-.4.8-.6 1.2.1 0 .1 0 .2.1.1-.2.2-.5.3-.7h.1v.4c.4-.3.7-.5 1-.8l.3.3c-.5.3-1 .7-1.5 1l.1.1c.2-.1.5-.2.7-.2l-.4.8c.3-.3.5-.4.8-.7-.1.4-.1.7-.2 1.1.3-.3.4-.4.5-.6.6.6.8-.2 1.1-.4.1.3.2.5.3 1 .3-.7.6-1.2.9-1.9.1.5.3 1 .9.6V44c.1.3.2.6.3.8h.2c-.1-.3-.1-.7-.2-1 .2-.1.5-.2.6-.3.2-.5.3-1 .5-1.7-.3-.6-.9-1-1.9-1 .4.5 0 .7-.3.9-.5.6-1.3 1.2-2.1 1.8zM276.6 57v-.9c-.1-.7-.6-1-1.4-.9v1c-.1-.6-.2-.9-.2-1.2h-.2c0 .4 0 .7-.1 1.1h-.1V55h-.2c-.1.4-.1.7-.2 1.1-.1-.4-.1-.8-.2-1.2h-.2c0 .3 0 .6-.1.8-.1-.2-.3-.7-.3-.7-.5.2-.9.4-1.4.6 1.1 1.4 1.3 2.8.6 4.2.4.1.7.2 1 .3.2-.6.3-1.3.5-1.9h.1c-.1.6-.2 1.1-.3 1.7.1 0 .2.1.3.1.1-.5.3-1 .4-1.5h.1c-.1.4-.1.8-.2 1.2h.2c.1-.4.3-.8.4-1.2h.1v1.2h.2c.3-1.2.6-2.5.9-3.7h.2c-.1.5-.3.9-.4 1.4 0 .2.1.4.1.6-.2.5-.4 1.1-.6 1.6.1 0 .1 0 .2.1.5-1.3 1.2-2.5 1.1-4-.1.6-.2 1-.3 1.3zm-9.3 7.3c0-.1.1-.1.1-.2s0-.2.1-.3c.6-.6.7-1.1-.1-1.6-.2-.1-.5-.2-.8-.4-.8-.7-1.7-.9-2.6-.2-.3.2-.6.2-.9.4-.4.3-.5.7-.4 1.2.1.2.1.4.1.6 0 .9.2 1.1 1.1.9.1 0 .2 0 .4-.1 0 .3-.1.5-.1.6.3 0 .5-.1.8-.1.2 0 .5-.1.7-.1 0 .1 0 .1.1.2.1-.1.2-.2.3-.4.1.2.1.3.2.5.4-.3.7-.6 1-1zm19.8-12.4v.4c.1 0 .3 0 .4-.1.4-.2.7-.4 1.1-.7.1-.1.2-.4.3-.6.1-.2.2-.5.4-.7.5-.3.3-.9.1-1-.6-.6-.6-1.1-.1-1.8 0-.1-.1-.2-.1-.3-1.1 1.6-2.8 1.5-4.3 1.9-.2-.1-.5-.2-.5-.1-.6.8-.6 2.8.2 3.6.1-.5.1-.9.2-1.3.1.2.2.5.2.5h1l.2.4c.4-.3.7-.5 1.1-.8-.1.3-.1.4-.2.6zm-4.4-13.4c0 .4.1.7.1 1.2.5-.8.6-1.9.3-2.4-.1.3-.2.6-.3.8 0-.4.1-.8.1-1.2-1.5-.5-2.9-1-4.3-.1l.3-.6c-1.6.9-1.2 4 .6 5.3.2-.9-.8-1.8.1-2.8v1.7h.2c.1-.2.3-.3.4-.5.1.1.1.2.2.3.4-.3.8-.6 1.1-.8v.6c.4-.3.8-.9 1.2-1.5zm-15.1 6.9c-.1.2-.3.3-.4.5 0 .5 1.2 1.4 1.8 1.3l-.6-.9h-.1c-.1 0-.2.1-.2.1-.1-.3-.3-.6-.4-1l.4-.4v.2c.4.1.7.1 1 .2 0 .1-.1.2-.2.4 1.7-.2 2.7-1.4 3.9-2.4-.7.2-.7.2-.6-1.6.6.3 1.1.6 1.5.9-.1-.5-.2-1.1-1-1.1-.4 0-.7-.2-1.1-.3-.8-.2-1.6-.6-2.5-.3-1.3.5-2.6 2-2.7 3.3 0 .2.1.4.2.6h.3c.2 0 .4-.1.5-.2.3.3.2.5.2.7zm3.5-5.6h-.1c-.1-.5-.2-1-.3-1.4h.2c0 .2.1.4.1.6.2-.4.3-.8.4-1.1l.3.9c.2-.1.5-.3.7-.4v1.7h.2V39c.3-.2.6-.3.6-.4 0-.8.7-.8 1.1-1.2.4-.4.8-1.1.8-1.7 0-.4-.1-.9.3-1.1.3.3.7.6 1 1l.2-.2v.8c.5-.6.5-1.3 0-1.7-1.5-1.1-4.6-.9-5.9.5-1.3 1.5-1.1 4.2.5 5.4.3.2.8.3 1.1.5l-.6-1.5v.9h-.1c0-.4-.1-.7-.1-1.1h-.1c-.2.2-.2.4-.3.6zm-10.4 2.1h.2c.2-.6.4-1.3.5-1.9 0-.2-.1-.6-.3-.7-1.6-.9-5.1 0-5 2.9 0 1.1.3 2.1 1.3 2.8 0-.8-.1-1.6-.1-2.4h.2c.1.1.1.2.2.3.1-.2.2-.3.4-.5v1.8c.1-.4.1-.8.2-1.1.1-.3.2-.7.2-1-.3 2.3-.3 3.3.2 3.6-.2-1.3-.1-2.7.2-3.2 0 .2 0 .4-.1.5.3 0 .6-.1 1-.1.2-.4.4-.9.7-1.6.1.3.2.4.2.6zm4.1 30.3c.1 0 .2.1.2.1 1-1.2 1.9-2.4 2.5-4-1.4.3-2.6-.1-3.8-.7-.2-.1-.5 0-.7.1-.5.5-1.1 1-1.6 1.6-.2.2-.2.5-.2.8.1.7.2 1.4.4 2.3.4-.4.6-.7.9-1l.5.5c.3-.1.6-.3 1-.5-.1.2-.1.4-.2.7.7-.6 1.3-1.1 1.8-1.5l.1.1c-.2.5-.6 1-.9 1.5zM262 42.6c-1.1.5-1.7 1.4-1.8 2.6-.1 1.1.4 2 1.1 2.8 0-.6.1-1.1.1-1.6.3.2.6.5.9.7.2-.2.3-.4.5-.7v.8c.9-1 1.6-2 2.4-2.9-.1 0-.2 0-.3-.1 0-.4.1-.9.1-1.3-.1 0-.2.1-.3.1-.4-.3-.9-.6-1.3-.9-.5-.4-.8-.1-1.1.3-.3.4-.6.7-1 1.1l-.1-.1c.4-.2.6-.5.8-.8zm32.2 1.4c-.4.3-.8.7-1.2.9-.7.2-1.5.2-2.2.4-.2 0-.6.1-.6.2-.1.6-.2 1.3-.3 1.9h.3v-.8c0-.2.1-.4.1-.7.1.4.1.9 0 1.2-.2 1.2.1 1.8 1.2 2.2 1.7.6 3.2.2 4.7-.7.1-.1.1-.3.2-.4l-1.8.9c-.2-.2-.4-.4-.5-.6-.1.3-.2.5-.3.9-.1-.3-.1-.4-.2-.6-.8.9-.6-.4-1-.4-.1.3-.2.5-.3.8-.6-.4-.5-.9-.2-1.5v.9h.1c.1-.4.2-.8.3-1.4.1.5.1.8.1 1h.2c0-.2.1-.5.2-.8.1.3.1.4.2.8.1-.5.1-.8.2-1.1h.1c0 .2.1.5.1.7h.1c0-.3 0-.6.1-.9h.1c.1.2.1.5.2.8.3-.9.5-1.8.8-2.6-.1 0-.1 0-.2-.1-.2.4-.3.8-.5 1.3.1-.9 0-1.6 0-2.3zm-12.9 21.7h.3c.2-1.2.4-2.3.6-3.6-.7.1-1.2.2-1.6.2-1.6-.2-2.2 0-3 1.5-.4.8-.5 1.9-.1 2.6.1-.3.3-.7.4-1.1.1.5.1.9.2 1.5l.5-1c.4.2.7.4 1.1.6.2-.5.4-1.2.7-1.9h.1c-.1.6-.3 1.2-.4 1.8.1 0 .1.1.2.1.1-.4.2-.7.7-.5.1-.2.2-.4.3-.7-.1.3 0 .4 0 .5zm-12.6-6.5c.1-.4.2-.7.3-1.3.1.4.2.6.2.9.5-.9.9-1.8 1.3-2.6-.1 0-.1-.1-.2-.1-.3.2-.5.4-.7.6 0-.5-.1-1-.1-1.5-.1 0 0 0 .1-.1 0-.1 0-.1-.1-.2-.3.1-.7.2-1 .3-.8.2-1.5.5-2.3.7-.4.1-.6.1-.7.6-.1.6-.4 1.1-.6 1.7.1.3.3.8.5 1.4.2-.2.3-.4.4-.5.1-.2.3-.3.4-.5.1.2.2.5.2.7v.3h.1c.1-.3.2-.5.3-.8h.1c0 .2 0 .5.1.7h.1v-.9c.2.1.4.1.7.2.1.1.1.3.2.5.4-.1.6-.1.7-.1zM278 42c.2-.2.4-.5.6-.7-.6-.5-1-.6-1.5 0-.3.4-1 .5-1.7.8-.1.3-.5.8-.4 1.6.2.7 0 1.4 0 2.3.2-.4.3-.5.5-.7 0 .3 0 .5-.1.6l1.2-.9c0 .1.1.1.1.2-.1.2-.2.4-.3.5.2.3.4.5.5.7.4-.5.9-.9 1.3-1.4.2-.3.5-.8.4-1.1-.3-.7 0-1.1.3-1.6-.2-.4-.4-.7-.9-.3zm2.1-11.9c-.9.8-1.2.8-1.9-.2-1 .6-1.5 1.6-1.4 2.7.1 1.1.5 2.2 1.8 2.5.1-.4.2-.7.3-1.2l-.4.4c-.2-.9-.1-1.1.6-1.2v.7l.4-.4c0 .2.1.3.1.4.3-.3.6-.5.9-.8l.1.1c-.1.2-.2.5-.3.7.3-.1.4-.4.5-.6.1-.2.4-.3.5-.5.4-.6.4-1.1-.2-1.6-.4-.3-.7-.7-1-1zm1.7 18.4c-.9-.6-.8.5-1.2.7-.1-.2-.1-.4-.2-.6-.8.3-1.4.8-2.1.8-1.2 0-1.6.1-1.7 1.1-.1.6 0 1.1.1 1.9.2-.4.3-.5.4-.7 0 .2.1.3.1.6.1-.3.2-.5.3-.5.3.1.7.4.8.3.6-.4.6.2.7.4.2-.2.4-.5.6-.8-.1.3-.1.4-.1.6.2-.1.4-.2.5-.1.5.2.5.2.7-.1l.9-1.5c.1-.2.1-.4.3-.8-.3.1-.5.2-.7.3.2-.6.4-1.1.6-1.6zm10.9-13.1v.7h.1c.1-.4.1-.7.1-1 .3.3.6.5.9.8.1-.3.1-.6.2-.9.6-.2.8-.9.5-2.2-.7-.2-1.3-.4-1.9-.5-.3-.1-.7 0-1 0v.2c-.1-.1-.1-.2-.2-.3-.3.5-.6 1-.5 1.5.3 1.1.4 2.1.1 3.2l.1.1c.2-.4.4-.7.7-1.1.1.1.1.2.2.4.1-.2.2-.3.3-.5.1.1.1.2.2.4 0-.4.1-.5.2-.8zm-15.9 46.3c-.9.2-1.9.2-2.8.6-.8.3-1 1.9-.7 2.6.4-.3.2-1.2 1.1-1.2-.2.4-.3.8-.6 1.3.5-.2.7-.4 1.1-.5l-.3 1.5h.2c.2-.6.5-1.1.7-1.7h.1c-.2.5-.3 1-.5 1.5 0 0 .1 0 .1.1.2-.4.4-.7.6-1.1h.1c-.1.2-.1.4-.2.8l.6-.6v.7c.4-.5.5-1.1.8-1.6.7-1.3.7-1.3-.3-2.4zm-3.3-15.3c.1 0 .1.1.2.1l1.2-2.1c.1-.1 0-.4-.1-.5-.5-.9-1.4-1.1-2.3-1.3-.2-.1-.5-.2-.7-.1-.7.2-1.5 1.6-1.4 2.5.2-.2.4-.4.5-.6 0 0 .1 0 .1.1-.1.2-.2.5-.2.6.2.4.4.6.4.7.6 0 1.2.1 1.7.1 0 .2 0 .4.1.8.2-.2.3-.4.3-.5.1-.1.2-.2.4-.5 0 .3-.1.5-.2.7zm10.9 3.9c0-.8-.3-1.3-.8-1.4-.7-.1-1.9.6-2 1.3-.1.4.1.9.1 1.4 0 .6-.3 1.3.5 1.7 0 0 0 .1.1.3.2-.3.3-.4.4-.6.2.1.4.2.5.3.8-1.1 1.6-2.1 2.6-3.3-.1-.2-.4-.4-.5-.6-.5.4-.7.7-.9.9zm-9.1-38.8c1.6-1.2 3.3-2.3 2.7-4.6-.2.2-.4.5-.7.8h-.1c.3-.7.7-1.3 1-2-.1-.1-.1-.2-.2-.3-.7.1-1.5.2-2.2.4-.2 0-.4.4-.3.5 0 1.5.6 2.9.1 4.4.1 0 .1.1.2.1.1-.2.2-.4.4-.7.1 0 .1.1.2.1-.5.5-.8.9-1.1 1.3zm5.3 25l-.1-.1c.2-.4.5-.9.7-1.4-1.2.4-2.8-1-3.3.8.5 1.1 1 2 1.5 2.9.1-.2.3-.5.6-.9-.1.3-.1.5-.1.6.1 0 .1.1.2.1.4-.6.9-1.2 1.3-1.8-.2-.2-.3-.4-.5-.6-.2.1-.3.3-.3.4zm.7 20.5l-.1-.1c-.2.3-.5.6-.7.9l-.1-.1c.2-.5.4-1.1.6-1.6-.1 0-.1-.1-.2-.1-.3.3-.6.7-.9 1-.1 0-.1-.1-.2-.1.3-.3.5-.7.8-1-.6.2-1.2.6-1.7.9-1.1.6-1.1 2.3-.1 3.1l.3-.6c.2.1.4.3.5.4l1.8-2.7zm2.9-19.3h.3c0-.5-.1-1-.1-1.6.8 1 .4 2 .2 3h.3c.1-.7.1-1.5.2-2.3.6.8-.1 1.5.1 2.2.2-.6.4-1.1.4-1.7 0-.6-.3-1.1-.4-1.7h.1c.1.2.2.5.4.9-.1-.5-.1-.8-.2-1.2h.1c.1.5.3 1 .4 1.5h.2c-.1-.4-.1-.9-.2-1.3h.1c.1.3.2.7.4 1.2.1-1.5-.2-2-1.7-2.7-.2.1-.3.3-.5.4-.3.3-1 .2-.6 1.1.3.5.3 1.4.5 2.2zM305.3 28c-2 1.4-3.8 3-5.3 5l.3.3c1.7-1.8 3.4-3.6 5-5.3zm-21 14.4v-.2c-.3 0-.6 0-.9.1-.9.3-2.1.2-2.6-.5-.3-.5-.7-.4-1.3-.4.4.4.7.7 1 .9 1.2.9 2.5.6 3.8.1zm12.8-8.9h-.2c0 .7.1 1.5-.2 2.2-.2.7-.8 1.2-1.3 1.9 1.6-.6 2.5-2.7 1.7-4.1zm-46.4 35.4l.3-.3c-.3-.4-.5-.8-.9-1-.2-.1-.5 0-.8 0 0 .3 0 .7.2.8.3.2.7.3 1.2.5zM294 41.3c-.2.9-.2 1.8-.6 2.3-.4.6-1.3.8-1.9 1.2 1.6.3 2.9-1.3 2.5-3.5zm-20.1 3.6c.1 0 .1 0 .2.1-.2.5-.3 1-.5 1.4l-.9 1.2c1.1-.5 2.1-2.1 1.8-3.4-.6.6-.8.9-.7 1.1 0-.2.1-.3.1-.4zm5.9-8.8c1.2.3 2.4.3 3.5-.5-1.1.3-2.3.9-3.3-.2-.1.2-.1.4-.2.7zm4.2-3.3c.3 0 .4.1.7.1.2-.8 0-1.5-.7-2.1v2zm-1.4 43.8c-.2.2-.3.4-.6.8.4-.2.5-.3.7-.3l.3 2.1c.5-.9.4-1.8-.4-2.6zm21.7-34.1l-.2-.2c-1.5 1-1.9 1.5-1.6 2l1.8-1.8zm-27.9-20.1v.3c.2 0 .4.1.7.1l-.6.3c0 .1 0 .1.1.2.5-.1 1.1-.3 1.6-.4v-.2l-1.8-.3zm5.1 55.3c-1.2.6-1.6 1.1-1.5 2.1.5-.7 1-1.3 1.5-2.1zm-7.7 1.2c.1 0 .2 0 .3.1.2-.9.4-1.8.7-2.7-.1 0-.2 0-.3-.1-.2.9-.5 1.8-.7 2.7zm3.5-38.7c-.8.3-1.7.7-2.6 1.1.9.1 2.2-.4 2.6-1.1zm-2.2 36.4h-.2c-.3.9-.5 1.8-.8 2.7.1 0 .1 0 .2.1.3-1 .6-1.9.8-2.8zm15.1-40.3h.3c.1-.5.2-1.1.3-1.6-.1 0-.2 0-.4-.1 0 .6-.1 1.1-.2 1.7zm-23.9 19.3c0-.1 0-.1.1-.2-.8-.2-1.6-.4-2.3-.6 0 .1 0 .1-.1.2.8.2 1.6.4 2.3.6zm35.9-6.7c.5-.3.5-.3 0-1.5v1.5zm-16.5-.8c0 .1.1.3.1.4.6-.3 1.2-.5 1.8-.8 0 0 0-.1-.1-.1-.5.1-1.2.3-1.8.5zm2.4-4.5l.1.1.4-.4-.1-.1c-.2.1-.3.3-.4.4z"/><path d="M275.6 10.7c.2-.8.5-1.7.7-2.5h.2c-.3.9-.4 1.9.1 2.8.1-.3.2-.6.4-1 .1.8.2 1.5.3 2.2.2-.3.3-.5.4-.7.1.5.2 1 .3 1.6.1-.2.3-.3.3-.4 0 .2.1.4.1.7 0 .2 0 .5-.2.7-.3.5-.2.9.5 1.2-.2-1.8 1.1-2.5 2.3-3.1 1.9-1 2.2-1.9 1.2-3.8-1.4-2.7-3.3-4.9-6.2-6.1-1.1-.4-2.3-.7-3.4-.7-2.2 0-4.3.3-6.5.6-.7.1-1.4.1-1.9.9-.2.4-.9.5-1.4.7-.5.2-1.1.5-1.6.8.1.2.3.3.5.6-1 .4-1.9.8-3 1.3l1.2.9c.4.3.7.6 1 .9-.4.2-.8.4-1.2.5-1.1.3-2.2.7-3.4 1 .2.3.4.6.6 1.1-2.3.9-4.5 1.7-6.8 2.6 0 .1.1.1.1.2 1.5.3 3 .5 4.5.8v.4c-.7.3-1.3.6-2.1 1 1.6 1.7 3.9 1.3 5.9 1.8l-.3.6c.1 0 .2.1.3 0 1-.3 2.1-.7 3.1-.9 1.2-.2 2.4-.3 3.6-.3.4 0 .9.4 1.1.8.2.5-.3 1-.7 1.2-.4.2-.8.3-1.2.4-1.2.4-2.6.7-3.7 1.3-1 .5-1.7 1.4-2.6 2.2.4-.6.6-1.3 1.1-1.7 1.1-.7 2.3-1 3.4-1.6.7-.4 1.4-.4 2.1-.5.4 0 .9-.5 1.2-1 .3-.6-.3-.8-.7-.8-1.2 0-2.4.1-3.5.2-.8.1-1.6.6-2.4.8-.5.1-1.1.1-1.8.2.2-.4.2-.6.3-.8-.2 0-.4-.1-.5-.1-1.1-.2-2.3-.4-3.4-.6-.1 0-.2 0-.2-.1-.5-.4-1-.8-1.4-1.2.5-.3.9-.5 1.4-.8.1-.1.2-.1.3-.4-1.5-.2-3.1-.5-4.8-.7.4-.3.6-.6.9-.7 1.9-.7 3.8-1.5 5.7-2.2.2-.1.4-.1.6-.2-.6-1.1-.6-1.2.7-1.5 1.1-.3 2.3-.6 3.5-.9-.8-.8-1.9-.9-2.2-2.1.8-.3 1.6-.6 2.5-1-.4-.6 0-.8.4-1 .5-.3 1.1-.5 1.6-.7.5-.2 1-.2 1.2-.9.1-.2.6-.3 1-.4 3.4-.7 6.8-1.1 10.2-.4 2.6.6 4.5 2.4 6 4.6.5.7.9 1.5 1.3 2.3.9 1.7.5 2.8-1.2 3.8-.7.4-1.4.7-1.9 1.3-1 .9-.7 2 .6 2.4 1.2.4 2.1-.2 2.9-.9.5-.4.9-1 1.2-1.6.2-.4.5-.6 1-.5.9.1 1.9.3 2.9.5-.4-1.4-.7-2.8-.3-4.3.1-.4.3-1 .6-1.2.5-.4.5-.9.5-1.5.1-.8.3-1.7.6-2.5-.1 1.1-.3 2.1-.5 3.3h1.1c.6 0 1.1.3 1.1.9.1.6-.4.9-.9 1-.6.1-1-.2-1.2-.7-.1-.1-.1-.3-.2-.5-1 .8-1.3 2-1.1 3.1.1 1.1.5 2.2.9 3.4-.3-.1-.5-.3-.7-.4-.9-.3-1.9-.6-2.8-.7-.2 0-.7.3-.8.5-.9 2-3.4 3-5.4 2.1-.3-.1-.7.1-1 .1-.2 0-.4-.1-.5 0-.6.3-1.3.5-1.8.8-1.4 1-2.8 2.1-4.2 3.1-.4.4-.8.7-1.1 1.1-.2.1-.5.2-.6.4l-3.9 4.8c-.6.8-1.3 1.5-1.9 2.3-.3 0-.7-.1-1 0-.3.1-.6.4-1 .6h-.5c.6-.4 1-.7 1.5-1 .5-.3 1-.7 1.7-1.2-.4 0-.7-.1-.8 0-.5.3-1.1.6-1.5 1-.7.6-1.4.5-2.1.3l.1-.1c1.3.5 1.8-.7 3-1.2-.5-.1-.7-.2-1-.3.5-.3.9-.7 1.3-1 .8 0 1.4-.4 2-.9 1.1-.3 2.1-1.2 2.3-2.1-.6.5-1.2.9-1.7 1.4-.2.2-.4.4-.7.6-.4.1-.7.2-1.1.3-.1-.1-.2-.3-.3-.5.3-.2.8-.5 1.2-.8h-.1c.5-.2.9-.4 1.5-.7-.3-.2-.5-.3-.5-.3.1-.3.1-.6.2-.8.7-.3 1.5-.6 2.3-1 .2-.1.2-.6.3-.8h-.2c.2-.1.3-.2.5-.3-.2-.1-.3-.2-.5-.3.3-.1.5-.1.8-.2-.1-.2-.2-.3-.2-.3.2 0 .5-.1.8-.1l.6-.3c0-.1 0-.1-.1-.2.5.1 1 .1 1.4.2v-.2c-.3-.2-.7-.3-.9-.4l2.7-.6c1.1-.3 2-.7 2.7-1.7-.2.1-.4.2-.6.4 0-.2-.1-.4-.1-.6h-.1c-.1.3-.1.6-.2 1h-.2v-1.1h-.2V17c-.6-.1-.6-.1-1-1.5-.1.4-.2.9-.3 1.3h-.1v-2.2h-.2c-.1.8-.1 1.5-.2 2.4-.1-1.1-.2-2.1-.3-3.1 0-.8.7-1 1.2-1.3.1 0 .3.1.6.2-.7-1-1.4-1.8-2-2.6.4.3.8.5 1.2.8v-.4c.4.2.9.2 1.4.1zM290 7.2c-.3.4-.6.6-.6.7.2.4.5.7.8 1 .2-.2.6-.5.6-.6-.1-.3-.4-.6-.8-1.1z"/><path d="M246.6 33.5c-.7-.2-1.4-.4-2.1-.5-1.2-.3-2.4-.5-3.7-.8-.1-1.2 1.1-1.7 1.8-2.7 1.3.4 2.6.7 3.9 1.1.3.1.7.2.9.5.8 1 2 1 3.1 1.4.9.3 1.5.2 2-.6 1.1-1.8 2.9-2.7 4.6-3.8.2-.1.4-.2.4-.4.4-1.3.8-2.6 1.2-4-.4.1-.7.3-1.1.4-.1-.7.2-1.2.8-1.4-.1.3-.2.6-.4.9.4 0 .7-.1 1-.1-.7 2.5-1.4 4.9-2.1 7.5.5-.3.9-.6 1.3-.8.3 1.1-1.7 4.7-3 5.6.7-1 1.3-2 2-3l-.2-.2c-.6.2-1.2.4-1.7.7-1 .5-1.8 1.3-2.8 1.7-.5.2-1.2.2-1.9.1-.5-.1-1-.4-1.6-.6-.5-.2-1-.2-1.5-.4-.2 0-.5-.3-.9-.6.3.2.5.4.7.5.5.3.8.2.7-.3.1.1.3.2.5.4.1-.3.8.1.6-.5.4.4 1.4.2 1.9-.4-.3-.2-.7-.3-1.1-.5-.4-.1-.8-.4-1 .2-.5 0-1-.1-1.3.5-.2-1.1-1.2 0-1.5-.8 0 .1-.1.1-.1.2.1.2.4.4.6.7zm5.1-.2c-.4.2-.7.3-1 .4 0 .2.1.4.2.6h-.1c-.1-.2-.3-.4-.4-.6-.5.1-.9.3-1.4.4v.2c.6.2 1.2.4 1.9.4.4 0 .9-.3 1.1-.6.1 0-.2-.5-.3-.8zm2.5-2.7c-.8.5-.8.7 0 1.4-.1-.2-.1-.5-.2-.7.1.1.3.1.6.2-.2-.4-.3-.6-.4-.9zm-10 .2c.1-.6-.2-.8-1.6-.6.7.2 1.2.4 1.6.6zm8.6 1.6c-.1 0-.1.1-.2.1.2.2.3.4.5.6l.1-.1c-.1-.3-.2-.5-.4-.6zM274.5 12.4c-.5.3-1.2.5-1.2 1.3-.2.6-.3 1.2-.5 1.9v-1.9h-.2v2.2h-.2v-2h-.2c-.1.8-.1 1.6-.2 2.4h-.1v-2.6c-.2-.1-.5-.2-.9-.4 0 .9-.1 1.6-.1 2.4h-.2V13c-.9.5-.3 1.4-.6 2-.1-.4-.1-.7-.2-1.1h-.1c-.1.9-.1 1.9-.2 2.8h-.1v-2.8c0-.3.1-.7-.4-.6.3-.7.9-1.2 1.5-1.7-.8-.4-1.6-.4-2 .1-.2.2-.3.6-.4.8 0 0 .1 0 .1.1l.5-.5c.1.4.1.8.2 1.2 0 .6 0 1.2-.1 1.8 0 .3 0 .7-.1 1-.1-1.1-.1-2.1-.2-3.2h-.2c-.1.2-.2.4-.5.8 0-.5-.1-.8-.1-1.1-1 .7-.8 1.7-.7 2.6h-.2l-.3-2.4h-.3v2.3h-.2c-.1-.9-.2-1.9-.3-2.8-.8.9-.1 1.8-.4 2.7-.1-.6-.2-1.2-.3-1.9-1 .5-.1 1.2-.5 1.8-.2-.7-.3-1.4-.5-2.1-1.1.9.1 1.8-.3 2.7-.2-.8-.4-1.7-.7-2.6-.9.8.2 1.6-.1 2.3-.4-1-.3-2.2-1.6-2.6-.7-.3-1.1-.1-1.4.8-.3-.6.3-1.3.9-1.4.4 0 .7-.1 1.1-.1v-.2c-.2 0-.3-.1-.6-.1.3 0 .5 0 .7-.1 0-.3-.1-.6-.1-1 .5.1 1 .1 1.5.2 0-.2 0-.5-.1-.8.1 0 .1-.1.2-.1.3.3.6.6.9.8l.1-.1c-.1-.3-.2-.5-.3-1 .3.3.5.4.9.7-.2-.8-.3-1.3-.5-1.9.6.6.1 1.7 1.2 2.1-.1-.4-.1-.7-.2-1 .2.3.3.5.5.8.1-.2.1-.4.2-.4.1.2.3.4.6.9.1-.5.1-.7.2-.9.1.1.1.3.2.4-.3.9 0 1.1 1.1.9-.2-.1-.3-.3-.5-.4.5 0 1 0 1.6-.1-.2-.3-.4-.6-.6-1l.1-.1c.1.1.2.3.4.6-.1-.9-.2-1.5-.4-2.4.4.7 0 1.6.9 2.1 0-.3 0-.5.1-.7.2.1.5.8.6.2.3.4.8.9 1.3 1.5.1-.5.2-.9.2-1.3h.1s0 .1.1.1c0 .2-.1.5 0 .6 1 .9 1.5 1.5 2.1 2.2zm-7 .2c.4-.5.7-.8 1.2-1.3-.9.2-1.8-.4-2.3.6-.1.2-.1.5-.1.8h.3c.1-.2.1-.5.1-.5.3-.2.6-.3.9-.5-.1.2-.1.5-.1.9zm-5.1-.5v.2h.6c-.1.3-.1.5-.2.8.1 0 .1 0 .2.1.3-.4.5-.8.9-1.4-.6.1-1 .2-1.5.3zm11.3.2c-1.2-.6-1.4-.5-1.4.2.2-.1.3-.2.4-.3.1.2.1.4.2.7.4-.2.6-.4.8-.6zm-2.9-2.1c0 .9.3 1.2 1.3 1.2-.5-.4-.9-.7-1.3-1.2zM268.7 28.2c-.3.2-.7.5-1.1.7-.1-.1-.2-.3-.4-.4 0 0-.1 0-.1.1.1.3.2.5.4.8-.3-.1-.5-.2-.7-.2.1.4.3.8.5 1.3-.3-.1-.5-.2-.7-.3l-.2.2c.3.2.6.4.8.5-.5.2-.8.4-1.2.6 0 .1 0 .2.1.2-.4-.3-.9-.6-1.3-.9l-.1.1c.4.4.8.8 1.1 1.2l-.1.1c-.2-.1-.4-.3-.8-.5.1.4.2.5.3.8-.2-.2-.4-.3-.8-.6l.4.8c-.3-.2-.5-.4-.7-.5-.3.2.1.9-.7.5.1.3.2.4.3.7-.6-.5-1-.8-1.5-1.2l-.1.1c.2.4.5.7.7 1.1-.2.5-1.4-.1-1.2.9-.2-.2-.5-.3-.7-.5 0 .1 0 .3-.1.6-.5-.2-1-.4-1.5-.5.3-.2.5-.4.8-.5.5-.2.9-.5.9-1.1l2.4-1.8c.1-.1.2-.2.2-.3-.1-.8.4-1.2.8-1.7.2.4.4.7.5 1.1.1 0 .1-.1.2-.1-.1-.3-.2-.6-.4-1 .6.2 1 .4 1.5.5-.1-.4-.3-.8-.5-1.2-.1-.2-.3-.2-.5-.4.6-.8 1.1-1.5 1.7-2.3.2-.2.4-.4.7-.5.1.2.1.4.2.6-.1-.1-.3-.1-.4-.2-.1 0-.1.1-.2.1.4.7.8 1.3 1.2 2 .2.5.3.8.3 1.1z"/><path class="st1" d="M300.4 27.7c.4.4.6.9.3 1.5-.1-.2-.1-.4-.2-.6-.1.1-.2.2-.4.3.4.5.4.9-.1 1.5-.2-.7-.3-1.2-.4-1.7l-.3.9c-.2-.3-.3-.5-.5-.8 0 0-.1 0-.1.1.1.4.3.8.5 1.5-.5-.4-.8-.7-1-.9.2.5.5 1 .7 1.5-.1 0-.2.1-.2.1-.1-.2-.1-.4-.2-.5-.1-.1-.3-.2-.4-.3-.9-.6-1.8-1.2-2.7-1.7-.4-.2-.7-.5-1.2-.9h.5c.2-.3.4-.6.5-.9v-.4l.6-.9c.7-.1.7-.9 1.3-1.2l.6.3c1.1.6 2 1.8 2.7 3.1z"/><path d="M268.7 28.2c-.1-.3-.1-.5-.2-.8 0-.1.1-.2.1-.3-.2-.6-.5-1.1-.7-1.7.4.2.8.4 1.3.7-.4-.7-.6-1.2-.8-1.7.2-.5.5-.9.7-1.4-.1.2-.2.4-.3.7.4.2.7.3 1 .4l.1-.1c-.2-.3-.3-.6-.5-.8.2-.1.4-.2.5-.4.1.3.3.6.4.9.1 0 .1 0 .2-.1-.2-.5-.3-1-.5-1.7-.4.4-.7.7-.9 1 .4-.6.9-1.3 1.3-1.9.4-.4.8-.7 1.1-1.1.6-.4 1.2-.8 1.9-1.3 0 .3.1.6.1.9 0 .3 0 .6-.1.9-.1-.3-.3-.5-.4-.8-.1 0-.1.1-.2.1.1.3.3.7.3.8-.3.4-.5.8-.8 1.1 0 .2.1.5.2.7-.1 0-.1 0-.2.1-.2-.2-.3-.4-.5-.7v1.9c-.2-.1-.3-.3-.5-.4-.2-.6-.3-1.3-.5-1.9.6.4.1-.4.3-.4.3.3.5.6.7.8 0-.7.1-1.3.1-1.7-.6.5-1.3 1-1.9 1.5.5.7.9 1.2 1.3 1.7h-.6c.4.4.6.8.9 1.1-.2.2-.5.3-.7.5.3.4.6.7.9 1.1l-.2.2-.6-.3-.1.1c.2.2.5.4.7.6 0 .1-.1.1-.1.2-.3-.1-.5-.2-.9-.3.2.5.3.8.4 1.1v.1c.1.1.2.3.3.5-.3-.1-.5-.2-.8-.3 0 .1 0 .3-.1.5-.2-.1-.4-.3-.6-.4.3-.5.3-.5-1.2-1 .4.7.7 1.3 1 2h.2c-.2-.1-.5-.3-.7-.4.1 0-.1-.2-.4-.3zM303.6 5.3h.5c-.1-.5.3-.5.6-.6.8-.4 1.5-.9 2.3-1.3-1.2 1-2.8 1.7-3.4 3.4 1.4-.8 2.3-2.1 3.9-2.6-1.1.8-2 1.4-2.9 2.2-1 .9-1.9 2-2.4 3.3-.2.5-.2.8.1 1.3.4.6.3 1.1-.3 1.8-.2-.4-.5-.7-.7-1-.5.2-.9.4-1.5.7.2-.5.3-.8.4-1.1 0 .1.1.1.1.2.1 0 .3-.1.3-.1v-1.1c-.1-.7 0-1.3.6-1.8l-.3 2.7c.4.3.8.6 1.4 1 0-.3.1-.7-.1-.9-1.2-1.7-.8-3.5-.2-5.2.5-1.5 1.5-2.8 2.6-3.9.2-.2.5-.3.9-.6-.8.9-1.5 1.7-2.1 2.5-.1.2-.1.4-.2.7-.2.2-.6.5-.6.7 0 .4.3.7.5 1 .1 0 .2-.1.2-.1-.1-.2-.2-.5-.3-.8.2.2.4.4.5.6.1-.1.1-.1.1-.2v-.8zM284.8 22.8s0 .1-.1.1c-.7-.1-.6.4-.6.8-.1.1-.2.1-.3.2-.1.2-.3.4-.4.6-.1-.3-.3-.6-.3-.9-.1-.4 0-.8 0-1.2 0-.7-.5-.9-1-1.3.1.4.1.7.2 1 .1.4.2.7.3 1.1l-.3 1.5h-.1v-1.6h-.2l-.6 2.1c-.1-.9.7-1.7-.1-2.7-.2.9-.4 1.8-.6 2.6h-.2c.2-.8.3-1.6.5-2.3-.1 0-.2 0-.2-.1-.3.9-.5 1.8-.8 2.7h-.1c.3-1.2.6-2.3.9-3.5-.1 0-.2 0-.3-.1-.2.5-.4 1.1-.6 1.6-.1-1 .7-1.9.3-3-.2.3-.3.5-.4.8-.1-.7-.2-1.4-.3-2 .5.1 1 .1 1.5.2.1.2.1.3.2.5.9.9 1.9 1.8 2.8 2.6.3-.1.6.1.8.3zM261.1 32.4c0 .6-.4.9-.9 1.1-.3.1-.5.3-.8.5-.1.3-.2.6-.2.9-.1-.1-.3-.2-.7-.5.2.4.3.6.4.9-.3-.1-.4-.2-.7-.4 0 .7-.2 1-1 .7 1.2-1.3 2.3-2.6 3.5-3.9-.1 0-.2-.1-.3-.1.2-.4.3-1 .6-1.4.2-.3.6-.4.8-.6.1-.1.2-.3.3-.5.3-.2.6-.5 1-.6.3-.1.6 0 1 0-.9 1-1.7 2-2.6 3-.2.3-.2.6-.4.9zM303.7.8c-.2.2-.4.5-.6.6-1.4.8-1.9 2.3-2.2 3.7-.4 2-.7 3.9-1.1 5.9 0 .1-.1.1-.3.2l1.5-8.1c-.9.8-1.3 1.8-1.7 3-.3 1.1-.6 2.3-.9 3.4V8.2c-.3.4-.4.6-.6.9h-.1v-.2c.7-1.6 1.3-3.3 2.2-4.7.9-1.3 2.2-2.4 3.4-3.6.2 0 .3.1.4.2z"/><path d="M281.1 19.1c-.5-.1-1-.1-1.5-.2l-.5.5c-.2.2-.3.5-.4.9.2-.9.5-1.7.4-2.5-.1-.5-.1-.9.3-1.3.1.2.3.5.5.9 0-.3.1-.4.1-.7.2.6.3 1 .4 1.3.4-.3.7-.5 1-.8.1.3.2.5.3.7-.2.3-.4.7-.6 1.2z"/><path class="st1" d="M249.1 33.5c.2.6-.5.3-.6.5-.2-.1-.3-.3-.5-.4 0 .5-.2.6-.7.3-.2-.1-.4-.3-.6-.4 0 0 0-.1-.1-.1l-.7-.7c0-.1.1-.1.1-.2.3.7 1.4-.3 1.5.8.3-.5.8-.4 1.3-.5.2.2.2.5.3.7zM273.5 18.7c-.6.4-1.2.8-1.9 1.3 1.4-1 2.8-2.1 4.2-3.1.5-.4 1.2-.6 1.8-.8.1-.1.3 0 .5 0l-.3.3c-1.4.8-2.8 1.6-4.3 2.3z"/><path d="M298.1 14.7v-3.4h.2c.1.4.2.8.4 1.1.1.2-.1.6.4.6 0 .3 0 .7-.1 1-.2.3-.6.4-.9.7zM275.6 10.7c-.5.1-.9.2-1.3-.3 0-.2-.1-.3-.1-.5.1-.4.2-.8.2-1.2h.1c0 .3.1.6.1.8.1 0 .1 0 .2.1.3-.7.5-1.4.8-2.1-.2 1-.7 2.1 0 3.2zM293.7 15.1c.2-.5.3-.9.5-1.6-.5.4-.8.7-1.1.9.5-1.1 1.4-1.8 2.3-2.4-.5 1-1.1 2.1-1.6 3.1 0 .1-.1.1-.1 0zM274.1 9.9c0 .2.1.3.1.5-.1-.1-.3-.1-.3-.2-1.2-1.5-2.5-2.7-4.3-3.5 0-.1.1-.1.1-.2.4.2.7.3 1.1.5.6.4 1.1.8 1.7 1.1l.4.4.6.6h.3c.1.3.2.5.3.8zM284.7 23.1c.3.3.5.6.8.9 0 .2 0 .5-.1.7-.1 0-.3.1-.3.1-.1.6-.3 1.2-.5 1.8.1-.6.1-1.3.2-1.9h-.3c-.1.2-.2.5-.2.7 0-.5-.1-1.1-.1-1.6.2.3.5.6.9 1-.1-.4-.1-.7-.2-1-.1-.3-.1-.5-.2-.7zM281.1 19.1c.2-.4.4-.8.6-1.3.1 0 .2-.1.3 0 .1 0 .2.2.3.2v1.7l-.6-.3c-.1 0-.3.1-.4.1-.1-.1-.1-.3-.2-.4zM295.4 16.6c.4-1.1.7-2.3 1.1-3.4-.2 1.2-.1 2.5-1.1 3.4z"/><path class="st1" d="M274.5 12.4c-.5-.7-1.1-1.3-1.6-2-.1-.1 0-.4 0-.6l.2.2c.6.8 1.3 1.7 2 2.6-.3-.1-.5-.2-.6-.2zM303.6 5.3v.5s-.1.1-.1.2c-.2-.2-.3-.3-.5-.6.1.4.2.6.3.8-.1 0-.2.1-.2.1-.2-.3-.5-.7-.5-1 0-.2.4-.4.6-.7.1.3.2.5.4.7z"/><path d="M290.7 15.4c.6-.1 1-.1 1.4-.2l-.5.5c.5.4.9.8 1.3 1.1 0 .1-.1.1-.1.2-.6-.5-1.3-1-2.1-1.6zM285.4 24.7c0-.2 0-.5.1-.7.5-.2.5.2.5.5 0 .4.1.8.1 1.3l-.6.3c0-.4-.1-.9-.1-1.4zM273.8 9.1h-.3c.1-.6.2-1.1.3-1.7h-.2l-.3.3c0-.4.1-.9.1-1.5.2.5.5.9.6 1.3.1.6-.1 1.1-.2 1.6z"/><path class="st1" d="M282.7 23c-.1-.4-.2-.7-.3-1.1-.1-.3-.1-.6-.2-1 .4.4 1 .6 1 1.3-.2.3-.4.6-.5.8z"/><path d="M283.4 24.4c.1-.2.3-.4.4-.6-.1.9-.3 1.8-.4 2.7h-.2c.2-.7.2-1.4.2-2.1zM261.6 12.8c.1.4.1.9.2 1.3s.3.7.3 1.2c-.2-.7-.5-1.3-.7-1.9-.3.2-.5.3-.7.5h-.1v-.2c.3-.3.6-.6 1-.9zM297 10.4c-.2.3-.4.5-.5.6 0 0-.1 0-.1-.1.2-.3.3-.6.5-.9.7.2.8.4.1 1.4v-1z"/><path class="st1" d="M273.4 7.8l.3-.3h.2c-.1.6-.2 1.1-.3 1.7l-.6-.6c.1-.3.2-.6.4-.8z"/><path d="M285.8 20.1c-.1.2-.2.3-.3.5-.1 0-.2 0-.3.1.1-.3.1-.6.2-.9-.2.1-.4.2-.5.3.2-.3.5-.7.6-.9.1.2.2.6.3.9z"/><path class="st1" d="M288.5 20.6c-.4.3-.8.7-1.3 1-.2-.9.3-1.1 1-1.1.1 0 .2 0 .3.1zM264.5 25.1c.4-.1.7-.2 1.1-.3 0 0 .1 0 .1.1-.5.6-1.2.9-2 .9.3-.3.6-.5.8-.7z"/><path d="M279.1 12.3c.3-.5.6-1.1.8-1.6.1 0 .1.1.2.1-.2.6-.4 1.1-.7 1.7 0-.1-.1-.1-.3-.2z"/><path class="st1" d="M268.4 10.7c.1.1.3.2.5.4-1.2.2-1.4 0-1.1-.9.2.2.4.3.6.5z"/><path d="M261 23.7c.8.2 1.5.4 2.3.6 0 .1 0 .1-.1.2-.8-.2-1.5-.5-2.3-.7.1.1.1 0 .1-.1z"/><path class="st1" d="M261.6 12.8c-.4.3-.7.5-1.1.8l-.2-.2c.4-.9.7-1.1 1.4-.8 0 .1 0 .2-.1.2zM287.1 25.7c-.2-.5-.4-.9-.6-1.5.6.4 1 .7 1 1.4-.1.1-.3.1-.4.1z"/><path d="M272.5 8.1c.1-1 .3-1.9.4-2.9h.2c-.1 1-.4 2-.6 2.9zM271.2 27.9v-.1.1z"/><path class="st1" d="M297.3 59.5c-.2.3-.3.7-.8.5-.7-.3-.9-.8-.7-1.8-.1.1-.2.1-.2.1-1-.7-.8-1.7-.6-2.7.3-.3.7-.6 1.1-.9 0 .2 0 .5.1.7.3-.1.8-.1.9-.3.1-.2-.1-.6-.1-1-.2.4-.3.7-.4.9-.1 0-.1 0-.2-.1v-1.2c-.1-.1-.3-.2-.5-.3.1-.5.3-1 .4-1.5.2-.2.3-.4.5-.5 0 .1.1.3.1.5.1-.1.3-.1.5-.2 0 .3-.1.5-.1.8h.1c.1-.6.3-1.3.4-1.9.3-.8.6-1.6.8-2.5-.1.1-.3.2-.5.4 0-.4.1-.8.1-1.2-.2.1-.3.2-.4.3l-.1-.1c.2-.2.5-.4.6-.6.8 1.1 1.5 2.2 2.2 3.3.3.4.6.7.9 1.1.2.2.3.5.5.7.3.3.5.6.8.9-.3.5.2 1.5 1.1 1.7.6.2.7.5.8 1 .1.4-.2.9.1 1.3l.3.6c.7-.5 1.2-1 1.8-1.4.5-.4.9-.7 1.4-1.1l-.1-.1c-.3.2-.7.4-1 .6-.1-.1-.2-.1-.2-.2.2-.6.4-1.1.6-1.7-.9-.1.1-.7-.2-1-.3.3-.6.7-.9 1-.1 0-.1-.1-.2-.1.1-.4.3-.8.4-1.1l.3-.3c.7.2.5-.5.8-.7 0-.1.1-.1.1-.2.1 0 .2.1.2.1-.2 1 .6 1.6 1.1 2.3.9 1.2 1.1 2.6.4 4.1-.2-.4-.3-.7-.5-1-.6.8-1.1 1.4-1.6 2.1-.8.6-1.6 1.1-2.3 1.7.1.1.1.2.2.2.7-.6 1.4-1.3 2.1-1.9.2-.1.4-.2.5-.2 0 1.4-.4 2.6-1 3.8-.5.9-1.1 1.8-1.6 2.7-.1 0-.1 0-.2-.1v-1.4h-.2c.3-.3.6-.7.9-1.1-.5.1-.8.1-1.1.2 0 0 0-.1-.1-.1.2-.2.4-.4.5-.6l-.1-.1c-.2.1-.3.2-.5.3-.6-1.2-1.2-2.3-1.8-3.5.1-.1.2-.2.4-.3 0 0 0-.1-.1-.1l-.6.3-.1-.1c.2-.3.4-.5.7-.8.3-.3.6-.6.8-1 .1-.1-.3-.5-.5-.7 0-.2.1-.5.1-.8-.2.1-.3.2-.4.2 0-.3-.1-.6-.1-.8l-.9.6c0-.3.1-.5.2-.7.1-.2.3-.5.2-.7-.2-.4-.5-.8-.8-1.2-.3.2-.6.3-1 .5-.2 0-.4.1-.7.1v.4c.1-.1.3-.1.4-.2 0 .3-.1.5-.1 1 .3-.3.4-.4.5-.6 0 .5 0 .8-.1 1.2-.2.3-.5.6-.7.8l.1.1c.5-.4 1.1-.8 1.6-1.2.1 0 .1.1.2.1-.1.3-.3.6-.4 1 .4-.3.8-.5 1.2-.8.1 0 .1.1.2.1-.3.4-.6.7-.9 1.1.2-.1.5-.2.7-.3 0 .1.1.1.1.2-.3.2-.5.4-.8.6-.3.3-.7.6-1 .9l-.6 1.2c-.3.5-.6 1.1-.9 1.6-.7-.4-1.2-1.3-1.1-1.9.3-.4.7-.8.4-1.5-.5.9-.9 1.7-1.4 2.5zm1.1-5.3c.2-.4.7-.8.6-1-.3-.5.2-.5.3-.7.1-.2.2-.3.3-.5.1-.2.1-.6.3-.7.6-.6 0-1-.2-1.4-.1-.3-.5-.4-.8-.7v-.1-.2h-.2c-.3 1.2-.5 2.4-.9 3.7.3-.2.5-.3.7-.5.1 0 .1.1.2.1-.2.6-.4 1.1-.6 1.8.1 0 .2.1.3.2zM312.4 29.6c-.2.4-.5.7-.8 1.2.2.1.3.2.5.2 1 .2 1.4.7.9 1.7-.4.8-1.1 1.5-1.8 2.1-.4.4-1 .7-1.6.9-.4.2-.7.4-.7.9 0 .3-.4.8-.7.9-.9.3-1.8.5-2.6-.3-.1-.1-.2-.1-.2-.2-1.1-.2-2.1-.4-3.3-.5.1-.1.2-.3.3-.6-.6.1-1.2.1-1.8.2v-.2c.7-.2 1.3-.3 2-.5-.1-.1-.1-.3-.3-.6.4.1.6.2.7.2-.1-.3-.1-.6-.2-.9.5-.2 1-.3 1.7-.6-.3-.1-.5-.2-.8-.4 1.4-.3 1.5-.4 1.2-1.1.2.1.4.1.6.2-.2-1.4.4-2.1 1.6-2 0-.3.1-.5.1-.7.3-.1.5-.3.7-.4-.1-.1-.3-.1-.4-.2-.3-.4-.6-.8-.9-1.3.3 0 .5-.1.8 0 .3 0 .6.2.8.2.1 0 .2-.3.4-.7-.5 0-.8-.1-1.2-.1.4-.8 1.5-1.1 2.1-.6 1 1.1 2 2.1 2.9 3.2zM313.7 48c.2 0 .3.1.3.1.1-.4.1-.8.3-1.1.4-.7.9-1.4 1.3-2.1-.5.7-1.1 1.5-1.6 2.1-.2-.1-.4-.3-.6-.5l.4-.8c-.5.1-.8.2-1.2.3 0-.6.3-.8.9-.8-.3-.1-.5-.2-.6-.3.2-.3.3-.5.5-.9-.4.1-.6.2-.9.3-.5.2-.5-.1-.5-.4l.7-.7c-.4-.1-.9.7-.9-.2-.2-.2-.5.6-.8 0 .4-.7.8-1.4 1.3-2.1.7.5 1.6.8 2.1 1.4.9 1 1.7 2.1 2.5 3.2.3.5.3 1.1.5 1.8-.7-.3-1.3-.5-1.8-.7-.4.4-.5.7-.3 1.2.5 1.3 0 2.5-.5 3.6-.3.7-.7 1.3-1.1 2.1-.1-.4-.2-.7-.3-1 0 0-.1 0-.2.1-.1-.3 0-.9-.7-.5-.1.1-.5-.3-.8-.4 0 .1-.1.3-.2.7l-1.2-.6c.1-.3.2-.6.4-.9l1.2-1.8c.1-.2.3-.3.4-.5-.2-.2-.5-.4-.7-.6 0-.1 0-.1-.1-.4.7.6 1.3 1.2 1.9 1.7.2-.5.2-.9.3-1.3zM271.1 39.8c0-.2.1-.4.1-.5h.1c0 .4.1.7.1 1.1h.1v-.9c.2.6.4 1 .6 1.5-.4-.2-.8-.3-1.1-.5-1.6-1.2-1.9-3.9-.5-5.4 1.2-1.4 4.4-1.7 5.9-.5.5.4.5 1.1 0 1.7v-.8l-.2.2-1-1c-.4.3-.2.7-.3 1.1 0 .6-.4 1.2-.8 1.7-.4.4-1.1.4-1.1 1.2 0 .1-.3.2-.6.4v1.1h-.2v-1.7c-.2.1-.4.3-.7.4l-.3-.9c-.1.3-.2.7-.4 1.1 0-.3-.1-.5-.1-.6h-.2c.1.5.2 1 .3 1.4.2-.1.3-.1.3-.1zM309 24.8c0 .2 0 .4-.1.5l-1.5.9c-.1-.2-.2-.5-.4-.8 0 .7-.5 1-1 1.2h-.1l-.3-.3c-.5.9-1 0-1.5 0-.2 0-.4.1-.7.2-.1-.3-.2-.6-.3-.8-.4-.6-.8-1.1-1.1-1.7.1-.2.2-.5.4-.6.8-.4 1.6-.9 2.5-1.2.3-.1.7 0 1 0 0 0 0-.1-.1-.3h1.3c.6.9 1.3 1.9 1.9 2.9zM267.6 45.4c0-.2.1-.4.1-.6-.2.1-.4.1-.5.2h-.3c-.1-.2-.2-.4-.2-.6.1-1.3 1.4-2.8 2.7-3.3.9-.4 1.7 0 2.5.3.4.1.7.3 1.1.3.8.1.9.6 1 1.1l-1.5-.9c-.2 1.8-.1 1.8.6 1.6-1.2.9-2.2 2.2-3.9 2.4.1-.1.2-.3.2-.4-.3-.1-.7-.1-1-.2v-.2l-.4.4c-.2-.1-.3-.1-.4-.1zM266.4 38.7c.1.2.2.4.3.7-.2 0-.4 0-.5-.1-.3 1-1.5.4-1.9 1.1-.1-.3-.1-.5-.2-.7 0-.1-.1-.2-.1-.4-.1.3-.1.4-.2.5l-.2.2-.5.5c-.1.1-.3.2-.4.3l.3.3c.2.1.3.2.5.3.5.1 1 .4 1.5.4.7-.1 1.1.5 1.8.6-2 .7-4.7-1.1-5.1-2.7-.2-.7 0-1.4 0-2.2 0-.1.3-.3.4-.4 1.5-.7 3-1.4 4.7-2.2-.3.6-.5.9-.7 1.4.3 0 .6-.1.9-.1.1.3.2.5.3.8-.3.2-.7.4-1 .6-.2-.1-.4-.3-.6-.4 0 .3.1.6.1.8.3.4.5.5.6.7zm-1 .8c-.1 0-.1-.1-.2-.1 0 0 0 .1-.1.1.1 0 .2.1.2.1.2 0 .2-.1.1-.1zM260.7 41.9c0-.2 0-.3-.1-.6-.3.6-.5 1.2-.7 1.6-.4 0-.7.1-1 .1 0-.1 0-.4.1-.5-.3.5-.5 1.9-.2 3.2-.5-.3-.5-1.3-.2-3.6-.1.3-.2.7-.2 1-.1.4-.1.8-.2 1.1v-1.8c-.2.3-.3.4-.4.5-.1-.1-.1-.2-.2-.3h-.2c0 .8.1 1.5.1 2.4-1-.7-1.3-1.7-1.3-2.8-.1-2.9 3.4-3.8 5-2.9.2.1.3.5.3.7-.1.6-.4 1.3-.5 1.9h-.3zM264.8 72.2c.3-.5.7-1 1-1.5l-.1-.1c-.6.5-1.1 1-1.8 1.5.1-.3.1-.5.2-.7l-1 .5c-.2-.2-.3-.4-.5-.5-.3.3-.5.6-.9 1-.1-.9-.3-1.6-.4-2.3 0-.3.1-.6.2-.8.5-.6 1-1.1 1.6-1.6.2-.1.5-.2.7-.1 1.2.6 2.4 1 3.8.7-.6 1.6-1.5 2.9-2.5 4-.1 0-.2 0-.3-.1z"/><path class="st1" d="M262 42.6c-.2.3-.5.6-.7.8l.1.1c.3-.4.7-.7 1-1.1.3-.4.6-.7 1.1-.3.4.3.8.6 1.3.9.1 0 .2-.1.3-.1 0 .4-.1.9-.1 1.3.1 0 .2 0 .3.1-.8.9-1.5 1.8-2.4 2.9v-.8c-.2.3-.3.4-.5.7-.3-.2-.6-.5-.9-.7 0 .5-.1 1.1-.1 1.6-.7-.8-1.2-1.7-1.1-2.8.1-1.1.7-2 1.7-2.6zM294.2 44c0 .7.1 1.4.1 2.3.2-.5.4-.9.5-1.3.1 0 .1 0 .2.1-.2.8-.5 1.6-.8 2.6-.1-.3-.2-.5-.2-.8h-.1c0 .3 0 .6-.1.9h-.1c0-.2-.1-.5-.1-.7h-.1c0 .3-.1.6-.2 1.1-.1-.4-.1-.5-.2-.8-.1.3-.1.6-.2.8h-.2c0-.3-.1-.5-.1-1-.1.6-.2 1-.3 1.4h-.1v-.9c-.3.6-.4 1.1.2 1.5.1-.3.2-.5.3-.8.4 0 .1 1.3 1 .4 0 .2.1.3.2.6l.3-.9c.2.2.3.4.5.6.6-.3 1.1-.6 1.8-.9 0 .1 0 .3-.2.4-1.5.9-3 1.3-4.7.7-1.1-.4-1.4-1.1-1.2-2.2.1-.4.1-.8 0-1.2 0 .2-.1.4-.1.7v.8h-.3c.1-.7.2-1.3.3-1.9 0-.1.4-.1.6-.2.7-.1 1.5-.1 2.2-.4.3-.2.7-.6 1.1-.9zM282.7 38.5c-.4.6-.7 1.1-1.2 1.8v-.6c-.3.2-.7.5-1.1.8 0-.1-.1-.2-.2-.3-.1.2-.3.3-.4.5h-.2V39c-.9.9.1 1.9-.1 2.8-1.8-1.3-2.2-4.4-.6-5.3-.1.3-.2.4-.3.6 1.5-.9 2.9-.5 4.3.1 0 .4-.1.8-.1 1.2 0-.1-.1 0-.1.1zM287.1 51.9c0-.1.1-.2.1-.5-.4.3-.7.6-1.1.8l-.2-.4c-.4 0-.7.1-1 0-.1 0-.1-.3-.2-.5-.1.4-.1.8-.2 1.3-.8-.8-.9-2.9-.2-3.6.1-.1.4 0 .5.1 1.5-.4 3.2-.3 4.3-1.9 0 .1.1.3.1.3-.5.6-.5 1.2.1 1.8.1.1.4.7-.1 1-.2.1-.3.4-.4.7-.6.2-1.1.5-1.7.9zM267.3 64.3c-.3.4-.6.7-1 1.1-.1-.2-.2-.3-.2-.5-.1.1-.2.3-.3.4 0-.1 0-.1-.1-.2-.2 0-.5.1-.7.1-.3 0-.5.1-.8.1 0-.1.1-.3.1-.6-.2 0-.3.1-.4.1-.9.2-1.2 0-1.1-.9 0-.2 0-.4-.1-.6-.1-.5 0-.9.4-1.2.3-.2.6-.2.9-.4.9-.7 1.8-.5 2.6.2.2.2.5.2.8.4.8.5.7 1 .1 1.6-.1.1 0 .2-.1.3l-.1.1zM305.2 39.6c.2-.2.3-.6.5-.6 1.3-.2 2.6-.3 4-.3.5 0 1.1.2 1.8.3-.7.3-1.2.6-1.7.8 0 .1 0 .2-.1.3 1-.1.4.4.4.6-.2.3-.3.5-.5.8l-.3.3c-.2.2-.4.3-.6.5-.3.3-.5.7-.7 1-.1-.1-.2-.1-.2-.2l.9-2.1c-.2.1-.5.2-.8.3 0-.1-.1-.1-.1-.2l-1.2 1.5c-.1 0-.1-.1-.2-.1.2-.2.3-.4.5-.6l-.1-.1c-.3.3-.6.5-.9.8-.1 0-.1-.1-.2-.1l.7-1.4c-.4.3-.6.5-.9.7 0 0-.1 0-.1-.1.2-.3.4-.6.6-1-.1 0-.1-.1-.2-.1-.4.7-.9 1.3-1.3 2-.1 0-.1-.1-.2-.1.2-.4.5-.9.7-1.3-.1 0-.1-.1-.2-.1-.1.1-.3.2-.4.3 0-.1-.1-.2-.1-.3l.9-1.5zM281.3 65.7c0-.1-.1-.2-.1-.4-.1.3-.3.6-.3.7-.5-.2-.6.1-.7.5-.1 0-.1-.1-.2-.1.1-.6.3-1.2.4-1.8h-.1c-.2.7-.5 1.3-.7 1.9-.4-.2-.7-.4-1.1-.6-.2.3-.3.6-.5 1-.1-.5-.1-.9-.2-1.5-.2.4-.3.7-.4 1.1-.3-.7-.3-1.8.1-2.6.7-1.5 1.3-1.7 3-1.5.5.1 1-.1 1.6-.2-.2 1.3-.4 2.4-.6 3.6 0-.1-.1-.1-.2-.1zM269.7 50.6c-.5-.5-.3-1 0-1.5.3-.7.9-.8 1.6-.9.8-.1 1.6-.3 2.2-.6.8-.4 1.1.2 1.8.4-.9 1.2-1.7 2.4-2.5 3.6-.6-.3-1.2-.2-1.7.5-.3-.4-1-.1-1-.8 0-.2.1-.4.1-.6-.2-.1-.4-.1-.5-.1zM268.7 59.2c-.1 0-.3 0-.6.1-.1-.2-.1-.4-.2-.5-.2-.1-.4-.1-.7-.2v.9h-.1c0-.2 0-.5-.1-.7h-.1c-.1.3-.2.5-.3.8h-.1v-.3c-.1-.2-.2-.5-.2-.7-.1.2-.3.3-.4.5-.1.1-.2.2-.4.5-.2-.6-.4-1.1-.5-1.4.2-.6.5-1.1.6-1.7.1-.5.3-.5.7-.6.8-.2 1.6-.4 2.3-.7.3-.1.7-.2 1-.3 0 .1 0 .1.1.2-.1.1-.2.1-.1.1 0 .6.1 1 .1 1.5.2-.2.5-.4.7-.6.1 0 .1.1.2.1-.4.8-.9 1.7-1.3 2.6-.1-.3-.1-.5-.2-.9-.2.6-.3.9-.4 1.3z"/><path class="st1" d="M278 42c.5-.4.8-.1 1.1.3-.3.5-.7.9-.3 1.6.1.2-.2.8-.4 1.1-.4.5-.9 1-1.3 1.4-.2-.2-.3-.4-.5-.7.1-.1.2-.3.3-.5 0-.1-.1-.1-.1-.2l-1.2.9c0-.1 0-.3.1-.6-.2.2-.3.4-.5.7 0-.9.1-1.7 0-2.3-.2-.8.2-1.3.4-1.6.7-.3 1.4-.4 1.7-.8.6-.6 1-.5 1.5 0-.4.2-.6.5-.8.7zM276.2 58.3c0-.2-.1-.4-.1-.6.1-.5.3-.9.4-1.4h-.2c-.3 1.2-.6 2.5-.9 3.7h-.2v-1.2h-.1c-.1.4-.3.8-.4 1.2h-.2c.1-.4.1-.8.2-1.2h-.1c-.1.5-.3 1-.4 1.5-.1 0-.2-.1-.3-.1.1-.6.2-1.1.3-1.7h-.1c-.2.6-.3 1.3-.5 1.9-.3-.1-.6-.2-1-.3.6-1.3.5-2.7-.6-4.2.5-.3 1-.5 1.4-.6 0 0 .2.5.3.7 0-.2 0-.5.1-.8h.2c0 .4.1.7.2 1.2.1-.4.1-.8.2-1.1h.2v1.1h.1c0-.4 0-.7.1-1.1h.2c.1.3.1.7.2 1.2v-1c.8-.2 1.3.1 1.4.9v.9c-.1.2-.3.6-.4 1zM280.1 30.1c.3.4.6.7 1 1 .5.5.6 1.1.2 1.6-.1.2-.4.3-.5.5-.1.2-.2.4-.5.6.1-.2.2-.5.3-.7l-.1-.1c-.3.2-.6.5-.9.8 0-.1 0-.2-.1-.4l-.4.4v-.7c-.7.1-.8.3-.6 1.2l.4-.4c-.1.5-.2.8-.3 1.2-1.3-.4-1.7-1.4-1.8-2.5-.1-1.1.3-2.1 1.4-2.7.7.9.9 1 1.9.2zM265.7 52l-1.5.9c0-.1 0-.2.1-.6-.4.3-.8.4-1.1.6.1-.3.2-.6.4-.9 0 0-.1 0-.1-.1-.1.2-.2.3-.4.7v-1.4h-.2v2.2l.9.9-.2.2c-.6-.2-.9-.7-1.1-1.3-.5-1.1 0-2.1.1-3.2.1-.7.7-.5 1.1-.5 1.2-.1 2.2-.3 3.2-1 .1-.1.3-.1.6-.1.1.5.1 1 .2 1.4-.7.8-1.4 1.5-2 2.2zM281.8 48.5c-.2.5-.5 1-.7 1.5.2-.1.4-.1.7-.3-.1.3-.2.6-.3.8l-.9 1.5c-.2.4-.2.4-.7.1-.1 0-.3.1-.5.1 0-.2.1-.3.1-.6-.3.3-.5.6-.6.8-.2-.3-.1-.9-.7-.4-.1.1-.5-.2-.8-.3 0 .1-.1.3-.3.5-.1-.2-.1-.4-.1-.6-.1.2-.2.3-.4.7 0-.8-.2-1.4-.1-1.9.1-1 .5-1.1 1.7-1.1.7 0 1.3-.5 2.1-.8 0 .2.1.4.2.6.5-.1.5-1.2 1.3-.6zM296.6 51.4c-.2.2-.3.4-.5.5-.2.2-.6.4-.5.6.2 1.1-.4 1.7-1.1 2.3-.3.2-.4.6-.6 1-.1.2-.2.5-.4.9-1-1.8-1.2-3.5-.9-5.2.4-.4.9-.7 1.3-1.1.4-.3.9-.5 1.3-.8-.2 1.1-.5 2.2-.7 3.3l.1.1c.1-.2.3-.4.4-.7h.2l-.3 1.2c.1 0 .1.1.2.1.1-.3.3-.7.2-1 0-.5.5-1.7 1-2 0 .1.1.3.1.3.3-.4.7-.9 1.1-1.3.1 0 .1.1.2.1-.4.6-.8 1.2-1.1 1.7zM283.8 43.5c.8-.6 1.6-1.1 2.4-1.7.3-.2.7-.4.3-.9 1 0 1.6.4 1.9 1-.2.7-.3 1.2-.5 1.7-.1.2-.4.2-.6.3.1.3.1.7.2 1h-.2c-.1-.2-.2-.5-.3-.8v.6c-.6.4-.8-.1-.9-.6-.3.7-.6 1.2-.9 1.9-.2-.5-.2-.7-.3-1-.3.2-.5 1-1.1.4-.1.1-.3.3-.5.6.1-.4.1-.7.2-1.1-.3.2-.5.4-.8.7l.4-.8c0-.5.3-.9.7-1.3zM304.3 48.8c-.7-.2.1-.5-.1-.8-.2.2-.4.4-.7.6-.1 0-.1 0-.2-.1l.3-.9h.6l-1.8-2.4c-.1.3-.2.5-.3.7-.1-.2-.3-.3-.5-.6-.1.3-.1.4-.1.6l-.6-.6v.7s-.1 0-.1.1c-.1-.3-.3-.5-.5-.8-.1.2-.2.5-.4.9-.1-.4-.1-.6-.3-1.1-.2.5-.3.9-.4 1.2h-.1v-1.1c-.2.4-.3.6-.4 1-.1-.5-.2-.8-.3-1.2.7-.1 1.3-.1 1.8-.2.8 0 1.6-.1 2.4-.1.8 0 1.5.2 2.3.3 1.6.2 3.3.4 4.8 1.1.6.3 1 .8 1.5 1.2-.1 0-.3.1-.4.1v.5c-.3-.3-.5-.7-.9-1.1 0 .3-.1.5-.1.9-.3-.3-.6-.5-.8-.7 0-.1-.1-.3-.1-.4.1-.5-.4-.3-.6-.5-.1.2-.3.3-.3.4l-.9.6c-.4-.5-.8-1.3-1.7-.6-.4-.3-.8-.7-1.2-1.1 0 .2-.1.4-.1.6-.1.1-.3.2-.5.4.3.5.6.9.9 1.3.3.3.2.6-.1.8 0 .1 0 .2-.1.3zM290.1 41.5c-.2.2-.4.5-.5.7-.8-.6-1.6-1.4-1.2-2.5.3-1.1 1.3-1.4 2.5-1.5-.1.2-.3.3-.4.5.6-.2.8-1.4 1.7-.8.4.3.8.6 1 1 .2.5-.2.9-.7 1.1.1-.3.3-.5.4-.8l-.1-.1-.6.9c-.3.5-.7 1-1 1.5-.2.4-.3.8-.5 1.2 0 .1-.1.2-.1.3-.2.2-.4.5-.7.8.1-.4.1-.6.2-.8.3-.8.6-1.5.9-2.3 0 0-.1 0-.1-.1-.3.2-.5.6-.8.9zM312.4 29.6c-.9-1-1.9-2.1-2.8-3.1-.1-.3-.3-.6-.4-.8l1.3-1.3 1.1 1.1c.4.1.9.3 1.3.3.9.1 1.1.3 1 1.2-.2.9-.5 1.9-1.5 2.6z"/><path class="st1" d="M311.6 25.4l-1.1-1.1c-.4.1-.7.3-1.1.4-.2.1-.3 0-.5.1-.6-1-1.2-2-1.8-2.9.4-.2.8-.4 1.3-.5.7-.1 1.4-.1 2.2-.2 0 .3 0 .6.1.8.3.1.6.2.8.2.2.3.3.6.5 1s.5.8.8 1.3l-1.2.9zM292.7 35.4c-.1.2-.2.4-.3.7-.1-.2-.1-.3-.2-.4-.1.1-.2.3-.3.5-.1-.1-.1-.2-.2-.4-.2.4-.4.7-.7 1.1l-.1-.1c.3-1.1.2-2.1-.1-3.2-.1-.4.2-1 .5-1.5.1.1.1.2.2.3v-.2c.3 0 .7-.1 1 0 .6.1 1.3.3 1.9.5.3 1.4.1 2-.5 2.2-.1.3-.1.6-.2.9-.3-.3-.6-.5-.9-.8 0 .3-.1.6-.1 1h-.1c.1 0 .1-.3.1-.6zM274.6 71.5c.3-.9.5-1.8.9-2.7.1-.2.4-.4.7-.6.1.8 1.2 1.4 2 1.3.1.3.2.6.2 1-.1 0-.2 0-.3.1.1.2.3.5.4.7l-.6.3c.2.3.4.7.6 1l-.1.1c-.2-.2-.4-.3-.6-.5 0 .3-.1.5-.1.8-.4-.1-.9-.3-1.3-.4-.1.1-.2.2-.4.5-.2-.4-.4-.7-.6-1.2-.1.3-.1.5-.2 1-.3-.5-.4-1-.6-1.4zM276.8 81.7c1 1.2 1 1.2.4 2.5-.3.5-.4 1.1-.8 1.6v-.7l-.6.6c.1-.4.2-.6.2-.8h-.1c-.2.4-.4.7-.6 1.1 0 0-.1 0-.1-.1.2-.5.3-1 .5-1.5h-.1c-.2.6-.5 1.1-.7 1.7h-.2l.3-1.5c-.3.2-.6.3-1.1.5.2-.6.4-.9.6-1.3-.9.1-.7.9-1.1 1.2-.4-.7-.1-2.2.7-2.6.8-.5 1.8-.6 2.7-.7zM273.5 66.4c.1-.2.2-.4.3-.9-.2.3-.3.4-.4.5-.1.1-.2.2-.3.5 0-.4-.1-.6-.1-.8-.6 0-1.1 0-1.7-.1-.1-.1-.2-.3-.4-.7 0-.1.1-.3.2-.6 0 0-.1 0-.1-.1-.2.2-.3.4-.5.6-.1-.8.7-2.3 1.4-2.5.2 0 .5 0 .7.1.9.3 1.8.4 2.3 1.3.1.2.1.4.1.5l-1.2 2.1c-.2.2-.2.2-.3.1zM284.4 70.3c.2-.2.4-.5.7-.9.2.2.4.4.5.6-.9 1.2-1.7 2.3-2.6 3.3-.1-.1-.3-.2-.5-.3-.1.2-.2.3-.4.6 0-.2 0-.3-.1-.3-.8-.4-.5-1.1-.5-1.7 0-.5-.2-.9-.1-1.4.1-.7 1.3-1.4 2-1.3.7.1 1 .6 1 1.4zM259.4 48c-.2.4-.3.8-.5 1.2-.2-.1-.5-.2-.7-.2-.2 0-.4.3-.6.5-.1-.1-.3-.4-.6-.7v1h-.2c-.2-.8-.6-1.5-.7-2.3-.1-.9.2-1.7 1.2-2.2.2.3.5.6.8.9.9-.4 1.6.1 1.5 1.4-.1.1-.1.3-.2.4zM275.3 31.5c.3-.4.7-.8 1-1.2-.1 0-.1-.1-.2-.1-.1.2-.2.4-.4.7-.1 0-.1-.1-.2-.1.6-1.5 0-2.9-.1-4.4 0-.2.2-.5.3-.5.7-.2 1.5-.3 2.2-.4.1.1.1.2.2.3-.3.7-.7 1.3-1 2h.1c.3-.3.5-.6.7-.8.7 2.2-1 3.4-2.6 4.5zM298.7 38c-.2.3-.5.7-.7 1-.1.2-.2.4-.3.5-.1.2-.3.5-.6.7.1-.2.1-.5.2-.7v-.1c-.1.2-.3.4-.4.6-.1.2-.2.4-.4.6v-.5h-.1c-.1.3-.3.6-.4 1 0-.5-.1-.9-.1-1.3h-.2c-.4.9-.9 1.7-.3 2.7l-.1.1c-1.4-.6-.9-1.8-.9-2.9 0-.2.1-.5.3-.6.2-.2.3-.4.5-.6.4-.3.8-.7 1.2-.9.6-.3 1.2-.5 1.9-.7-.2.4-.4.7-.6 1.1l.1.1c.3-.4.5-.7.9-1.3v1.1c.2-.1.1 0 0 .1zM285.3 36.2c-.1.2-.3.3-.4.5-.1.2-.4.6-.3.7.2.2.5.3.9.6 0 .4-.3.4-.7.3-.9-.4-1.4-1.2-1.6-2 .7-.6 1.5-1.1 1.7-2.1.1-.5.2-1 .3-1.6.1-.6.9-.9 1.6-.7.2.1.4.1.5.2-.1.3-.1.6-.2.9-.6 1.1-1.2 2.2-1.8 3.2zM305.2 39.6c-.3.5-.6.9-.8 1.4-.2 0-.4-.1-.5 0-.5.5-.9 1.1-1.4 1.6-.6-.1-.4-.3-.1-.6.2-.2.5-.4.8-.6-.7-.5-1.3-.2-1.6.7-.1.4-.3.7-.5 1.1-.1 0-.1-.1-.2-.1.1-.4.3-.7.4-1.1h-.1c-.1.1-.2.3-.4.6.4-1.5.7-2.8 1-4.1.9.2 2.1.4 3.2.6 0 .1.1.3.2.5zM261.3 55.4c-.1.3-.2.6-.2.9 0 .2 0 .4-.1.7-.2-.5-.5-.9-.7-1.4l-.4.4c0-.3-.1-.6-.1-.8h-.2c-.1.4-.1.7-.2 1.2-.8-1.8.1-3.5 1.5-4.4 0 .2-.1.3-.1.6.4-.3.6-.5.9-.8.2.6.3 1.3.5 1.9-.3.6-.6 1.2-.9 1.7zM280.6 56.5c.1-.1.2-.3.2-.5.2.2.3.4.5.6-.4.6-.9 1.2-1.3 1.8-.1 0-.1-.1-.2-.1 0-.1.1-.3.1-.6-.3.4-.5.7-.6.9-.5-.9-.9-1.9-1.5-2.9.5-1.8 2.1-.4 3.3-.8-.3.5-.5 1-.7 1.4.1.2.1.2.2.2zM300.3 58.8l.6-1.2c.8-.6 1.5-1.2 2.3-1.8.2.3.6.6.5.7-.2.4-.5.7-.8 1-.8.4-1.4.8-1.4 1.9 0 .6-.3 1.1-.5 1.7-.1.2-.4.4-.5.5-.1 0-.1-.1-.2-.1 0-.4.1-.9.1-1.4-.2.4-.3.7-.5 1-.4-1 .6-1.6.6-2.4 0 .1-.1.1-.2.1zM300.4 27.7c-.7-1.3-1.6-2.5-2.9-3.2-.1-.2-.2-.3-.4-.5.3-.1.6-.3.8-.4.8.5 1.6.9 2.4 1.4.4.3.8.7 1.3 1 .1.4.1.7.2 1.1-.2 0-.3-.1-.5-.1.1.2.2.3.3.5-.2-.1-.4-.2-.7-.2.2.3 0 .5-.5.4zM281.3 77c-.6.9-1.2 1.8-1.8 2.6-.1-.1-.3-.2-.5-.4l-.3.6c-1-.8-1-2.5.1-3.1.5-.3 1.1-.6 1.7-.9-.3.3-.5.7-.8 1 .1 0 .1.1.2.1.3-.3.6-.7.9-1 .1 0 .1.1.2.1-.2.5-.4 1.1-.6 1.6l.1.1c.2-.3.5-.6.7-.9 0 .2 0 .2.1.2zM284.2 57.7c-.2-.8-.3-1.7-.6-2.4-.5-.9.2-.8.6-1.1.2-.1.3-.3.5-.4 1.4.7 1.8 1.2 1.7 2.7-.2-.5-.3-.8-.4-1.2h-.1c.1.4.1.9.2 1.3h-.2c-.1-.5-.3-1-.4-1.5h-.1c0 .3.1.6.2 1.2-.2-.4-.3-.6-.4-.9h-.1c.1.6.4 1.1.4 1.7 0 .6-.2 1.1-.4 1.7-.2-.7.5-1.4-.1-2.2-.1.8-.1 1.5-.2 2.3h-.3c.2-1 .6-2-.2-3 0 .6.1 1.1.1 1.6 0 .2-.1.2-.2.2zM292.8 29.3c.1.2.2.6.4.7.6.5.5 1.1.5 1.8.1-.3.1-.6.2-1 1 .5 1.9 1 2.8 1.5 0 .1-.1.1-.1.2-1.7 0-3.3-.1-4.9-.9-.2-.1-.3-.4-.3-.5 0-.5.1-1.1.4-1.6v2c.4-.8.7-1.5 1-2.2zM281.3 19.5c.1 0 .3-.2.4-.1l.6.3c1.3.9 2.5 1.9 3.8 2.8 1.5 1.1 2.6 2.5 3.7 3.9l-.1.1c-.9-1.1-1.8-2.1-2.7-3.2l-.3.3c.1.1.1.2.3.5-.7-.5-1.4-.9-2-1.3-.2-.2-.5-.4-.7-.6-1.2-.9-2.1-1.8-3-2.7zM288.5 28.5c.2-.4.4-.9.6-1.5.5.5 1 1 1.6 1.4 1.3.8.5 1.9.4 2.9-.7-.2-.9-.5-.8-1.2.1-.5-.1-1.1-.3-1.6v2.1c-1.3-.7 0-1.5-.4-2.3-.1.5-.3 1-.4 1.5h-.2c0-.5 0-1.1.1-1.6h-.1c-.1.4-.2.8-.3 1.1h-.1c0-.2 0-.5-.1-.8zM273.7 77.5c-.4.8-.9 1.6-1.3 2.4-.3.1-.6.1-1 .2-.3-.5-.7-1.1-.4-1.9.1-.2.4-.4.6-.5.6-.2 1.3-.3 2-.4 0-.1 0 .1.1.2zM312.4 41c-.4.7-.8 1.4-1.3 2.1-.3.3-.7.6-1.1 1.1.1-.3.2-.4.2-.5-.1 0-.1-.1-.2-.1-.3.7-.6 1.3-1 2h-.2c0-.2 0-.5.1-.7.1-.3.2-.6.4-1 .6-.8 1.3-1.6 1.5-2.6.1-.1.1-.2.2-.4.5-.7 1-.1 1.4.1zM255.9 59.4c-.1.9-.1 1.8-.3 2.7-.1.4-.3.7-.6 1 .2-.7.5-1.5.4-2.2-.1-1.4-.3-2.8-.5-4.1-.3-2 .5-4.6 2.2-6-2 2.6-2.1 5.5-1.2 8.6z"/><path class="st1" d="M301.6 25.9c-.4-.3-.8-.7-1.3-1-.7-.6-1.3-1.2-2-1.8.5-.6.8-.6 1.2 0 .1.2.2.5.4.7.4.4.7 1 1.3.4 0 0 .2.1.3.1.4.4.8.8 1.3 1.2.1.5.3 1.1-.4 1.4-.2-.3-.5-.7-.8-1zM298.7 38l.2-.2h.1c.2-.2.4-.6.6-.7.2-.1.5-.2.8-.3 1.1 1.1 1 4.1-.4 5.3.6-1 .8-2 .2-3h.2c.1.1.2.3.3.4.3-.5.3-1-.3-1.9-.3.3-.5.6-.7.9l-.1-.1c.1-.2.2-.4.2-.5-.1 0-.1-.1-.2-.1-.6 1-1.3 2.1-1.9 3.1-.1-.8.3-1.3.6-1.9.2-.4.3-.7.4-1zM301.8 51.9c-.2-.2-.3-.5-.5-.7-.2-.5-.3-.9-.5-1.5.4.4.7.6 1 .8l.2-.2c-.1-.1-.2-.3-.1-.4 0-.1.2-.4.3-.4.4-.1.8 0 1.3 0 .1.2-.6.7.1.9-.1.2-.2.4-.3.7.1 0 .2.1.3.2.1.1.1.2.2.3-.3 0-.6.1-.9.1-.4.1-.7.1-1.1.2zM285.3 36.2c.6-1.1 1.3-2.2 1.9-3.3.8-.4 1-.8.6-1.7.5.2.9.4 1.6.7-.4.3-.6.4-.7.5-.2 0-.3 0-.5-.1 0 .2.1.4.1.6-.7.6-1.3 1.4-1.4 2.3l-.2.2c-.5.4-.9.8-1.5 1.3 0-.2 0-.3.1-.5zM269.9 67.9c.1-.1.2-.2.3-.5 0 .2.1.4.1.5.7-.3 1.3-.1 1.8.6h-.3c.2.3.4.5.6.7l-.1.1c-.3-.3-.6-.7-1.1-1.1.2.7.3 1.1.4 1.6-.1 0-.1.1-.2.1-.3-.4-.7-.8-1-1.2-.1 0-.1 0-.2.1.1.7.2 1.3.3 2.1-.4-.3-.7-.5-1-.7v-1c.1-.4.3-.9.4-1.3zM271.6 73.4c-.1.4-.3.8-.5 1.3-.1-.2-.2-.4-.2-.5-.4.3-.9.5-1.3.8l.3-1.2-.1-.1c-.3.4-.6.9-1 1.4v-.5l.6-1.5c.3-.6.8-.4 1.3-.2.4.2.6.4.9.5zM312.5 23.1c-.1-.3-.3-.6-.5-.9 1-.1 2-.3 3-.4l.1.1c-.4.3-.8.7-1.2 1-.1.1-.1.3-.2.3-.2.3-.5.5-.7.8-.1-.3-.3-.6-.5-.9zM305.3 28c-1.6 1.8-3.3 3.6-4.9 5.3l-.3-.3c1.4-2 3.2-3.6 5.2-5zM311 40.8c-.1.1-.1.2-.2.4-.3.5-.5 1.1-1 1.5-.4.3-.5.7-.5 1.2l-.6 1.2c-.1.1-.3.2-.5.3.1-.5.2-.7.2-1 0-.1.1-.2.1-.3.6-.8 1-1.6 1.1-2.5.2-.3.3-.5.5-.8.1-.2.3-.3.5-.6.1.2.3.4.4.6zM297.5 30.8c.2.4.4.8.7 1.1l-.2.2c-.2-.2-.5-.4-.7-.6-.3-.2-.6-.4-.5.1-.6-.5-1.2-1-1.8-1.4h.3c.1 0 .2-.1.4-.2-.1-.1-.1-.3-.2-.4-.1-.2-.3-.5-.5-.7.4.3.8.5 1.3.8.2.5.4 1 .6 1.4.3-.1.5-.2.6-.3zM311.2 44.7l-.9.3c0 .1.1.2.1.2.1-.1.3-.2.6-.3-.1.4-.2.6-.3.9.1 0 .1.1.2.1 0-.2.1-.3.1-.5l.1.1c0 .4.1.7.1 1.3-.6-.5-1.3-.8-1.5-1.3-.3-.7.7-1.6 1.7-1.8 0 .1 0 .3.1.4 0 .3-.1.5-.3.6zM309.8 51.4c-.2-.1-.5-.2-.7-.3.4-.7.8-1.4 1.1-2 .3-.1.6-.2.9-.4-.1.3-.1.6-.2.8-.3.7-.7 1.3-1.1 1.9z"/><path class="st1" d="M296.3 29.7c-.4-.3-.8-.5-1.3-.8-.3-.2-.5-.4-.8-.6 0-.1.1-.1.1-.2l.9.3c.9.6 1.8 1.2 2.7 1.7 0 .1-.1.3-.1.4-.2 0-.4-.1-.5-.1-.3-.1-.6-.4-1-.7zM284.3 42.4c-1.3.4-2.6.7-3.8 0-.3-.2-.6-.5-1-.9.7-.1 1-.1 1.3.4.5.7 1.7.8 2.6.5.3-.1.6-.1.9-.1v.1zM297.1 33.5c.7 1.3-.1 3.5-1.7 4.1.5-.7 1.1-1.3 1.3-1.9.2-.7.1-1.5.2-2.2h.2z"/><path d="M307.5 27c.3 0 .7.1 1.2.1-.2.3-.3.6-.4.7-.3 0-.5-.1-.8-.2h-.8c.4.5.6.9.9 1.3-.1 0-.2 0-.3-.1-.3-.3-.6-.7-.9-1 .3-.2.7-.5 1.1-.8zM266.4 38.7c-.1-.2-.3-.3-.3-.5-.1-.3-.1-.5-.1-.8.2.1.4.3.6.4.3-.2.7-.4 1-.6.2-.1.5-.1.7-.2-.6.7-.8 1.7-1.9 1.7z"/><path class="st1" d="M309.8 51.4l1.2-1.8c.1-.2.1-.5.2-.8l.6-.3c.1.2.1.4.2.6l-1.2 1.8c-.2.2-.3.4-.5.6-.2 0-.4-.1-.5-.1zM283.8 43.5c-.3.4-.6.9-1 1.3-.2.1-.5.2-.7.2l-.1-.1c.5-.3 1-.7 1.5-1l-.3-.3c-.3.2-.6.5-1 .8V44h-.1c-.1.2-.2.5-.3.7-.1 0-.1 0-.2-.1.2-.4.3-1.1.6-1.2.4-.3 1 0 1.6.1zM307.7 51.1c0 .1-.1.1-.1.2-.6-.1-.3-.4-.2-.7.1-.2.3-.4.4-.6l.3-.6c.6-.2.2-.9.5-1.2l.5.5c-.3.5-.5 1-.8 1.5l-.6.9zM250.7 68.9c-.4-.2-.9-.3-1.3-.6-.2-.1-.1-.5-.2-.8.3 0 .6-.1.8 0 .4.3.6.7.9 1-.1.1-.1.3-.2.4zM308.5 44.1c0 .1-.1.2-.1.3-.5.8-1 .9-2.1.6.2-.4.4-.7.7-1.1.1.3.2.4.2.7.3-.2.7-.4 1-.5.1-.2.2-.1.3 0zM269.5 73.3l-.6 1.5c-.1.3-.3.5-.4.8h-.1c-.2-.2-.5-.3-.7-.5.3-.2.5-.4.8-.6.3-.5.6-.9 1-1.2zM310.2 49.1c-.4.7-.8 1.4-1.1 2-.6 0-.6 0-.3-.8.2-.3.4-.6.6-.8.3-.2.6-.3.8-.4z"/><path d="M296.1 53.7v1.2c.1 0 .1 0 .2.1.1-.3.2-.5.4-.9.1.4.2.8.1 1-.1.2-.5.2-.9.3 0-.2 0-.5-.1-.7-.4.3-.7.6-1.1.9.6-.6 1-1.2 1.4-1.9zM302.5 42.6c.5-.5.9-1.1 1.4-1.6.1-.1.3 0 .5 0 0 .1.1.2.1.3-.2.5-.4.8-1 .8-.1 0-.3.3-.4.3-.2.1-.4.2-.6.2z"/><path class="st1" d="M294 41.3c.3 2.2-.9 3.8-2.6 3.5.7-.4 1.5-.7 1.9-1.2.5-.5.5-1.4.7-2.3zM273.9 44.9c0 .1-.1.2-.1.3-.1-.1.1-.4.7-1.1.2 1.3-.7 3-1.8 3.4.3-.4.7-.8.9-1.2.2-.4.4-.9.5-1.4-.1.1-.1.1-.2 0zM290.6 42.9c0-.1.1-.2.1-.3.3-.4.6-.8 1-1.3.4.6.4.6-1.4 2.5.1-.4.2-.7.3-.9zM267.6 45.4h.2c.1.3.2.6.4 1 0 0 .1 0 .2-.1h.1l.6.9c-.6.1-1.8-.8-1.8-1.3 0-.2.2-.4.3-.5zM293.8 50.3c-.4.4-.9.7-1.3 1.1-.3-1.2.1-1.6 1.2-1.4 0 0 .1.2.1.3zM297.3 59.5c.4-.8.9-1.6 1.3-2.4.4.7-.1 1-.4 1.5-.3.5-.5.9-.9 1.5.1-.3.1-.5 0-.6zM298.3 23.1c.7.6 1.3 1.2 2 1.8-.8-.5-1.6-.9-2.4-1.4.2-.1.3-.3.4-.4z"/><path d="M302.5 26.9c.7-.3.4-.9.4-1.4.1 0 .2.1.3.1.1.3.2.6.3.8-.1.2-.1.5-.2.7-.1.5-.3.7-.8.5v-.7z"/><path class="st1" d="M268.3 37c-.2.1-.5.1-.7.2-.1-.3-.2-.5-.3-.8.1-.1.3-.2.4-.2.3 0 .6 0 .8.1-.2.2-.2.4-.2.7zM303.2 25.7c-.1 0-.2-.1-.3-.1-.4-.4-.8-.8-1.3-1.2 0-.3 0-.6.5-.3.3.4.7 1 1.1 1.6zM267.2 50.9c.2-.1.3-.2.5-.3l.2.2c-.7.8-1.3 1.7-2.4 2.2.1-.3.3-.4.4-.6.3-.5.8-1 1.3-1.5zM313.7 48c-.1.2-.2.4-.4.6-.6-.5-1.2-.9-1.8-1.4.4-.1.7-.2.9-.3.1.8.7 1 1.3 1.1zM290.1 41.5c.3-.3.5-.6.8-1 0 0 .1 0 .1.1-.3.8-.6 1.5-.9 2.3-.1 0-.4-.1-.4-.1.1-.5.3-.9.4-1.3z"/><path d="M311.2 44.7l.4-.4c.1-.1.3-.2.4-.3 0 .3 0 .6.5.4.2-.1.5-.2.9-.3-.2.4-.4.6-.5.9-.6-.2-1.1-.2-1.7-.3z"/><path class="st1" d="M309.4 49.5c-.2.3-.4.6-.6.8-.2.2-.4.5-.6.7h-.1c.1-.3.2-.6.3-.8.3-.5.5-1 .8-1.5 1-.1 0 .5.2.8zM267.2 50.9c-.5.5-1 .9-1.4 1.4 0-.1-.1-.2-.1-.3.6-.7 1.3-1.4 1.9-2.1-.1.3-.3.7-.4 1zM279.8 36.1c0-.3.1-.5.1-.7 1.1 1.1 2.2.4 3.3.2-.9.8-2.1.8-3.4.5zM304.3 48.8l.2-.2c.1.3.3.6.2.8-.3.4-.8.8-1.2 1.1-.2-.8.7-1.1.8-1.7zM284 32.8v-2c.6.6.8 1.3.7 2.1-.2 0-.4-.1-.7-.1zM312.5 23.1c.2.3.3.6.5 1l-.6-.3c-.2-.1-.3-.3-.5-.5-.2-.3-.3-.6-.5-1 .1 0 .4-.1.4 0 .3.2.5.5.7.8zM276.2 58.3c.1-.4.3-.8.4-1.3.1-.4.2-.7.3-1.1.1 1.5-.5 2.7-1.1 4-.1 0-.1 0-.2-.1.2-.4.4-1 .6-1.5zM261.3 55.4c.3-.6.6-1.1.9-1.7.1.2.2.4.2.6-.3.6-.6 1.3-.9 1.9-.1 0-.1 0-.2-.1v-.7zM269.9 67.9c-.2.4-.3.9-.5 1.3-.1-.1-.3-.1-.3-.2.1-.3.2-.6.2-1-.1.2-.2.4-.3.5l-.3-.3c.2-.3.5-.5.8-.8.1.1.3.4.4.5zM287.1 51.9c.6-.3 1.1-.6 1.7-.9-.1.2-.1.5-.3.6-.3.3-.7.5-1.1.7-.1.1-.3.1-.4.1.1-.3.1-.4.1-.5zM282.6 76.6c.7.7.9 1.6.4 2.6l-.3-2.1c-.2.1-.3.2-.7.3.3-.4.5-.5.6-.8z"/><path d="M311.9 49.1c-.1-.2-.1-.4-.2-.6l-.6.3-.3-.6v-.5c.1 0 .2-.1.4-.1l.5.5c.2.2.4.4.7.6-.2.1-.4.3-.5.4z"/><path class="st1" d="M304.3 42.5l-1.8 1.8c-.3-.5.1-1 1.6-2 .1.1.2.1.2.2zM282.7 38.5c.1-.1.1-.2.2-.3.1-.3.2-.5.3-.8.3.5.2 1.5-.3 2.4-.2-.5-.2-.9-.2-1.3z"/><path d="M262.8 53.5v-2.2h.2v1.4c.2-.3.3-.5.4-.7 0 0 .1 0 .1.1-.1.3-.2.6-.4.9 0 .1-.2.3-.3.5z"/><path class="st1" d="M299.4 29.6c.1.2.2.3.3.5.2.3.3.8.5 1 .6.5.6.5.1.9-.2-.3-.5-.6-.6-.9-.2-.5-.2-1-.3-1.5zM276.4 22.4c.6.1 1.1.2 1.7.3v.2c-.5.1-1.1.3-1.6.4 0-.1 0-.1-.1-.2l.6-.3c-.2 0-.4-.1-.7-.1.1-.1.1-.2.1-.3zM286.8 35.3c.1-1 .7-1.7 1.4-2.3-.1.3-.2.6-.3.8-.1.3-.3.7-.5 1l-.2.2-.3.3h-.1zM281.5 77.7c-.6.8-1 1.4-1.5 2.1 0-1 .4-1.5 1.5-2.1zM287.3 35l.2-.2c.4-.1.8-.3 1.3-.5-.5.6-.9 1.1-1.4 1.7-.1-.3-.2-.5-.3-.7.1-.1.2-.2.2-.3zM274.6 71.5c-.1.5-.3 1-.4 1.6h-.3c0-.3-.2-.7-.1-.9.1-.3.5-.5.8-.7zM271.6 73.5c.1-.1.3-.2.6-.5-.2.9-.4 1.7-.6 2.4h-.2c.1-.7.2-1.3.2-1.9 0-.1 0 0 0 0zM273.6 77.5c.1-.3.2-.6.4-.8.1 0 .1 0 .2.1-.2.8-.4 1.6-.7 2.4-.1.2-.4.2-.5.3.2-.7.4-1.4.6-2 .1 0 0 0 0 0zM302.4 27.7c.1.6.2 1.3.2 1.9-.6-.3-.6-1.5-.2-1.9zM273.8 78.9c.2-.9.5-1.8.7-2.7.1 0 .2 0 .3.1-.2.9-.4 1.8-.7 2.7-.1 0-.2-.1-.3-.1zM288.5 28.5c-.1.2-.2.4-.2.5h-.2c0-.4 0-.8.1-1.2.2-.4.3-.7.5-1.1.1 0 .1.1.2.1-.1.6-.2 1.1-.4 1.7z"/><path d="M296.3 29.7c.4.3.7.5 1.1.8l.2.2c-.1.1-.3.2-.6.4-.3-.4-.5-.9-.7-1.4z"/><path class="st1" d="M277 24.9c-.2 0-.3.1-.5.1 0-.2 0-.4.1-.6h1.6v.3c-.4 0-.8.1-1.2.2zM277.3 40.2c-.4.7-1.6 1.2-2.6 1.1.8-.4 1.8-.8 2.6-1.1zM301.5 27.4c.9.4.2 1.1.5 1.7-.1 0-.2.1-.3.1-.1-.3-.2-.6-.2-.9v-.9zM284.8 20c.1-.1.3-.1.5-.3-.1.4-.1.6-.2.9.1 0 .2 0 .3-.1-.1 1-.6 0-1 .1.2-.1.3-.4.4-.6zM284.7 23.1c.1.2.1.4.2.7.1.3.1.5.2 1-.4-.4-.6-.7-.9-1 0-.4-.2-.9.6-.8-.1 0-.1 0-.1.1zM275.1 76.6c-.2.9-.5 1.8-.7 2.7-.1 0-.1 0-.2-.1.3-.9.5-1.8.8-2.7 0 .1 0 .1.1.1zM295.5 42.4c.1-.3.2-.5.3-.8.2.5.5.9.8 1.4-.5-.2-.8-.4-1.1-.6z"/><path class="st1" d="M277 24.9c.5 0 .9 0 1.4.1-.5.6-1.2.1-1.8.3l.4-.4zM290.2 36.3c.1-.5.1-1.1.2-1.6.1 0 .2 0 .4.1-.1.5-.2 1.1-.3 1.6-.1-.1-.2-.1-.3-.1zM259.4 48c.1-.1.1-.3.2-.4.1-.2.1-.4.3-.7.4.9-.4 1.5-.3 2.2h-.2c-.1-.4 0-.7 0-1.1zM266.3 55.6c-.8-.2-1.6-.4-2.3-.6 0-.1 0-.1.1-.2.8.2 1.6.4 2.3.6 0 .1 0 .1-.1.2zM302.2 48.9v-1.5c.5 1.2.5 1.2 0 1.5zM285.7 48.1c.6-.2 1.3-.3 1.9-.5 0 0 0 .1.1.1-.6.3-1.2.5-1.8.8-.1-.2-.1-.3-.2-.4z"/><path d="M263.6 41.5c-.2-.1-.3-.2-.5-.3.1-.1.1-.2.2-.3.1-.1.2-.1.3-.2-.1-.1-.2-.1-.3-.2l.5-.5c0 .1.1.3.1.4-.1.4-.2.7-.3 1.1zM269.7 50.6h.6c0 .2-.1.4-.1.6-.1 0-.2.1-.3.1 0-.2.1-.5.1-.7 0 0 .1 0 0 0-.1.1-.2.1-.3.2-.1 0-.1-.1 0-.2z"/><path class="st1" d="M303.9 31.3c.2-.5.3-.5.8.1h-.7l-.1-.1zM269.9 50.7c0 .2-.1.5-.1.7-.1.2-.3.4-.4.6l-.1-.1c.2-.3.3-.7.5-1-.1-.1 0-.1.1-.2z"/><path class="st1" d="M304 31.4c-.4.5-.5.2-.7-.3.2.1.4.1.5.1l.2.2zM288.1 43.6l.4-.4.1.1-.4.4s-.1 0-.1-.1zM263.9 40.5c0-.1-.1-.3-.1-.4l.2-.2c.1-.1.2-.1.3-.2-.2.3-.3.6-.4.8z"/><path d="M287.3 35c-.1.1-.1.2-.2.3h-.2c.2-.1.3-.2.4-.3zM286.8 35.3h.1c-.1.1-.2.1-.3.2.1-.1.2-.1.2-.2z"/><path class="st1" d="M305.9 26.6h.1c-.1.1-.1.2-.2.3 0 0-.1 0-.1-.1.1 0 .1-.1.2-.2zM267.3 64.3c0-.1.1-.1.1-.2 0 .1 0 .1-.1.2zM261.1 32.4c.1-.3.2-.7.4-.9.8-1 1.7-2 2.6-3 .6-.8 1.3-1.5 1.9-2.3l3.9-4.8c.1-.2.4-.2.6-.4-.4.6-.9 1.3-1.3 1.9-.2.5-.5.9-.7 1.4-.2.2-.4.3-.7.5-.2.2-.5.3-.7.5-.6.7-1.1 1.5-1.7 2.3-.3.4-.6.8-.9 1.1-.5.5-1 .9-.8 1.7 0 .1-.1.2-.2.3-.8.6-1.6 1.2-2.4 1.7zM290 7.2c.4.5.7.8.8 1.1 0 .1-.4.4-.6.6-.3-.3-.6-.6-.8-1 0 0 .3-.3.6-.7zM265.7 24.8s-.1 0-.1-.1c.2-.2.4-.4.7-.6.6-.5 1.1-1 1.7-1.4-.2 1-1.2 1.9-2.3 2.1zM251.7 33.3c.1.3.4.8.3.9-.3.3-.7.6-1.1.6-.6 0-1.2-.3-1.9-.4v-.2c.4-.1.9-.3 1.4-.4.1.2.3.4.4.6h.1c-.1-.2-.1-.4-.2-.6.3-.2.6-.3 1-.5zM249.1 33.5c0-.2-.1-.4-.1-.6.3-.6.7-.3 1-.2.4.1.7.3 1.1.5-.6.4-1.6.6-2 .3zM254.2 30.6c.1.2.2.5.3.9-.3-.1-.4-.2-.6-.2.1.2.1.5.2.7-.8-.7-.7-.9.1-1.4zM244.2 30.8c-.5-.2-.9-.3-1.6-.6 1.4-.2 1.7-.1 1.6.6zM252.8 32.4c.1.2.3.4.4.6l-.1.1c-.2-.2-.3-.4-.5-.6.1-.1.2-.1.2-.1zM269 13.4c-.1-.4-.1-.7-.2-1.2l-.5.5s-.1 0-.1-.1c.1-.3.2-.6.4-.8.4-.5 1.2-.5 2-.1-.7.5-1.4.9-1.6 1.7zM267.5 12.6v-.9c-.3.2-.5.3-.9.5 0 .1-.1.3-.1.5h-.3c0-.3 0-.6.1-.8.5-1 1.4-.4 2.3-.6-.5.5-.8.8-1.1 1.3zM262.4 12.1c.4-.1.9-.2 1.5-.4-.4.6-.6 1-.9 1.4-.1 0-.1 0-.2-.1.1-.2.1-.5.2-.8h-.6v-.1zM273.7 12.3c-.3.2-.5.4-.8.6-.1-.3-.1-.5-.2-.7-.1.1-.3.2-.4.3.1-.7.3-.7 1.4-.2zM270.8 10.2c.5.4.8.8 1.3 1.2-1 0-1.3-.2-1.3-1.2z"/><path class="st1" d="M264.6 28.7c.3-.4.6-.8.9-1.1.2.1.4.2.5.4.2.4.3.9.5 1.2-.4-.2-.9-.3-1.5-.5.1.4.3.7.4 1-.1 0-.1.1-.2.1-.3-.3-.4-.7-.6-1.1zM267.8 24.8c.2-.2.4-.3.7-.5.2.5.5 1 .8 1.7-.6-.3-.9-.5-1.3-.7-.1-.1-.2-.3-.2-.5zM267.9 25.4c.2.6.5 1.1.7 1.7 0 .1-.1.2-.1.3-.4-.7-.8-1.3-1.2-2 .1 0 .1-.1.2-.1.2 0 .3 0 .4.1zM271.5 23.5c-.4-.5-.8-1-1.3-1.7.6-.5 1.3-1 1.9-1.5 0 .4-.1 1-.1 1.7-.2-.2-.4-.5-.7-.8-.2 0 .3.9-.3.4.1.6.3 1.2.5 1.9 0-.1 0 0 0 0zM269.2 23c.3-.3.5-.6.9-1 .2.6.4 1.1.5 1.7-.1 0-.1 0-.2.1-.1-.3-.3-.6-.4-.9-.2.1-.3.2-.5.4.1.2.3.5.5.8l-.1.1c-.3-.1-.6-.3-1-.4.1-.5.2-.7.3-.8z"/><path d="M303.5 50.5c.4-.4.8-.7 1.2-1.1.1-.1-.1-.5-.2-.8.3-.2.4-.4.1-.8-.3-.4-.6-.9-.9-1.3.2-.1.3-.2.5-.4.2.3.5.7.7 1 .2.3.3.7.8.5.2.1.3.3.3.3.3-.2.4-.3.6-.5.1-.1.3-.2.4-.2.3-.2.5-.3.9-.6.1-.1.2-.2.3-.4.2.2.7 0 .6.5 0 .1.1.2.1.4l-.3.9c-.3.3.1 1-.5 1.2 0-.2 0-.4-.1-.6-.2.1-.3.1-.5.2-.4-.3-.6 0-.8.4-.2.4-.5.7-.8 1-.5.5-.5.8.1 1.2-.2.5-.4 1.1-.6 1.6h.2c.3-.2.6-.5.9-.7-.1.4-.3.8-.4 1.1.1 0 .1.1.2.1.3-.3.6-.7.9-1 .3.3-.7.9.2 1-.2.5-.4 1.1-.6 1.7.1.1.2.1.2.2.3-.2.7-.4 1-.6l.1.1c-.5.4-.9.7-1.4 1.1 0-.1-.1-.2-.1-.3.1-.4.1-.8.2-1.2-.1 0-.2-.1-.2-.1-.3 1-1.6 1-1.9 2.2.4-.1.7-.2 1-.3-.4 0-.4.9-1.1.5-.4-.4-.1-.9-.1-1.3-.1-.5-.2-.8-.8-1-.9-.2-1.4-1.2-1.1-1.7-.3-.4-.6-.6-.8-.9.3 0 .7 0 1-.1.3 0 .6-.1.9-.1.9-.3.9-.3.9-.9-.2.1-.3.2-.5.3.2-.4.4-.8.6-1.1-.1 0-.2-.1-.2-.1-.3.5-.6 1-1 1.5-.1-.1-.3-.1-.3-.2.2-.3.3-.5.3-.7zm3-2.4c-.2.3-.4.6-.5.9-.1.3-.2.7-.3 1 1-.7 1.3-1.4.8-1.9zm-1.2 2.8c-.5.5-.9.9-1.4 1.5.3 0 .6.1.6 0 .4-.5 1.2-.7.8-1.5zm1.8 2.6c-.1-.1-.2-.1-.3-.2-.2.4-.5.8-.7 1.2.1.1.2.1.3.2.2-.4.4-.8.7-1.2zm-1.7-.5c-.1-.1-.2-.1-.3-.2-.3.4-.6.8-.9 1.1.1.1.2.2.3.2.4-.3.6-.7.9-1.1zM298.4 54.2c-.1-.1-.3-.2-.2-.2l.6-1.8c-.1 0-.1-.1-.2-.1-.2.1-.4.2-.7.5.3-1.3.6-2.5.9-3.7h.2v.2c0 .1-.1.1 0 .1.3.3.7.4.8.7.2.4.8.8.2 1.4-.2.2-.2.5-.3.7-.1.2-.2.3-.3.5-.1.2-.6.2-.3.7 0 .2-.4.6-.7 1zM303.2 55.9c-.8.6-1.5 1.2-2.3 1.8.3-.3.7-.6 1-.9.2-.2.5-.4.8-.6 0-.1-.1-.1-.1-.2-.2.1-.5.2-.7.3.3-.3.6-.7.9-1.1-.1 0-.1-.1-.2-.1-.4.3-.8.5-1.2.8.1-.4.3-.7.4-1-.1 0-.1-.1-.2-.1-.5.4-1.1.8-1.6 1.2l-.1-.1c.2-.3.5-.6.7-.8.1-.2.3-.4.4-.6.1-.5 1.2-.5.8-1.3-.1.1-.3.2-.6.5.1-.5.2-.7.3-1 .3.4.6.7.8 1.2.1.2-.1.5-.2.7-.1.2-.2.4-.2.7l.9-.6c0 .2.1.5.1.8.1-.1.2-.1.4-.2 0 .1-.1.4-.1.6z"/><path class="st1" d="M306.5 52.3c-.3.2-.6.5-.9.7h-.2c.2-.5.4-1.1.6-1.6-.6-.4-.6-.6-.1-1.2.3-.3.6-.7.8-1 .2-.3.4-.6.8-.4 0 .1-.1.2-.1.3-.1.3-.3.5-.3.8-.1.6-.2 1.3-.3 2-.1.2-.2.3-.3.4zM301.5 52.6c-.1.3-.2.5-.3 1 .3-.2.4-.3.6-.5.4.8-.6.8-.8 1.3-.2-.4-.3-.9-.5-1.3.4-.1.7-.3 1-.5z"/><path d="M300.6 53.2c.2.4.3.9.5 1.3-.1.2-.3.4-.4.6 0-.4 0-.7.1-1.2-.1.2-.2.3-.5.6.1-.4.1-.6.1-1-.2.1-.3.1-.4.2v-.4c.1 0 .4-.1.6-.1z"/><path class="st1" d="M304.6 56.9c.6.5.6-.5 1.1-.5.3-.2.6-.5 1-.7 0 .1.1.2.1.3-.6.5-1.2.9-1.8 1.4-.1-.1-.2-.3-.4-.5z"/><path d="M306.8 52c.1-.7.2-1.3.3-2 .1-.3.2-.6.3-.8-.1.3-.1.7-.2 1.2.3-.2.4-.3.6-.4-.1.2-.3.4-.4.6-.1.3-.4.6.2.7-.3.2-.1.9-.8.7zM307.3 58.7c-.7.6-1.4 1.3-2.1 1.9-.1-.1-.1-.2-.2-.2.7-.6 1.5-1.1 2.3-1.7zM263.2 41.2l-.3-.3c.1-.1.3-.2.4-.3v.3c0 .1-.1.2-.1.3zM264.2 39.8c-.1.1-.2.1-.3.2 0-.1.1-.3.2-.5.1.1.1.2.1.3zM265.4 39.6c-.1 0-.2-.1-.2-.1l.1-.1c.1 0 .1.1.2.1-.1 0-.1.1-.1.1zM263.9 39.9l-.2.2c.1 0 .2-.1.2-.2z"/><path class="st1" d="M265.4 39.6v-.1c.1 0 .1.1 0 .1z"/><path d="M308.7 48.1l.3-.9c.2.2.5.4.8.7.1-.3.1-.6.1-.9.3.4.6.8.9 1.1l.3.6c-.3.1-.6.2-.9.4-.3.1-.5.3-.8.4-.2-.2.7-.9-.3-.8-.1-.2-.3-.4-.4-.6zM305.7 47.6c-.5.3-.6-.2-.8-.5-.2-.3-.5-.7-.7-1 0-.2 0-.4.1-.6.4.4.8.7 1.2 1.1.1.3.2.7.2 1z"/><path class="st1" d="M305.7 47.6c-.1-.3-.2-.7-.3-1 .9-.7 1.2.1 1.7.6-.1.1-.3.1-.4.2-.2.1-.3.3-.6.5 0 0-.2-.1-.4-.3z"/><path d="M309.3 43.8c0-.5.1-.8.5-1.2.4-.4.7-1 1-1.5-.2 1.1-.9 1.9-1.5 2.7z"/><path class="st1" d="M303.6 51.3c.3-.5.6-1 1-1.5.1 0 .2.1.2.1-.2.3-.4.7-.6 1.1.2-.1.3-.2.5-.3 0 .6 0 .6-.9.9-.1 0-.2-.1-.2-.3zM307.8 50c-.1.1-.3.2-.6.4.1-.5.1-.8.2-1.2 0-.1.1-.2.1-.3.2-.1.3-.1.5-.2 0 .2 0 .4.1.6-.1.2-.2.5-.3.7zM263.3 40.9v-.3c.1.1.2.1.3.2-.1 0-.2 0-.3.1zM263.1 41.2c.1-.1.1-.2.2-.3 0 .1-.1.2-.2.3zM269.9 50.7s.1 0 0 0c.1 0 0 0 0 0z"/><path d="M304 31.4l-.2-.2.2.2z"/><path class="st1" d="M306.7 55.7c-.3.2-.6.5-1 .7-.3.1-.6.2-1 .3.3-1.2 1.6-1.3 1.9-2.2.1 0 .2.1.2.1 0 .3-.1.7-.1 1.1zM306.5 48.1c.5.5.2 1.2-.8 1.9.1-.3.2-.7.3-1 .1-.3.3-.5.5-.9zM305.3 50.9c.3.9-.5 1.1-.8 1.5-.1.1-.3 0-.6 0 .6-.6 1-1 1.4-1.5z"/><path class="st1" d="M307.1 53.5c-.2.4-.5.8-.7 1.2-.1-.1-.2-.1-.3-.2.2-.4.5-.8.7-1.2 0 .1.2.1.3.2zM305.4 53c-.3.4-.6.8-.8 1.2-.1-.1-.2-.2-.3-.2.3-.4.6-.8.9-1.1 0 0 .1 0 .2.1z"/></g><g><path class="st0" d="M144.4 82.1h1.3v-8.8h-1.3v-.8h3.8c2.2 0 3.1 1.3 3.1 2.6s-.7 2.1-1.8 2.5c1.3.4 2.1 1.1 2.1 2.5 0 1.6-1.2 2.8-3.2 2.8h-4v-.8zm3.7-4.9c1.7 0 2.5-.8 2.5-2 0-1.1-.8-1.9-2.3-1.9h-1.7v3.9h1.5zm.4 4.9c1.5 0 2.3-.9 2.3-2 0-1.4-1-2.1-2.7-2.1h-1.5v4.1h1.9zM155.7 82.1h1.3v-8.8h-1.3v-.8h6.8v2.3h-.8v-1.6h-3.9v3.9h3.2v.9h-3.2v4.1h3.9v-1.6h.8v2.3h-6.8v-.7zM167.1 73.3h-1v-.8h3v.8H168l2.9 8.3 2.9-8.3h-1.2v-.8h3v.8h-1L171 83h-.5l-3.4-9.7zM179.1 82.1h1.3v-8.8h-1.3v-.8h6.8v2.3h-.8v-1.6h-3.9v3.9h3.2v.9h-3.2v4.1h3.9v-1.6h.8v2.3h-6.8v-.7zM190.2 82.1h1.3v-8.8h-1.3v-.8h3.6c2.1 0 3.3 1.2 3.3 2.9 0 1.4-.9 2.4-2.2 2.9l2.2 3.8h1.2v.8h-1.7l-2.5-4.4h-1.7v3.6h1.3v.8h-3.4v-.8zm6-6.6c0-1.4-1-2.2-2.6-2.2h-1.4v4.4h1.3c1.6 0 2.7-.7 2.7-2.2zM201.1 82.1h1l3-8.8H204v-.8h3.9v.8h-1.1l3 8.8h1v.8h-3v-.8h1.1l-1-2.9h-4l-1 2.9h1.2v.8h-3v-.8zm6.5-3.7l-1.7-5.2-1.8 5.2h3.5zM213.9 77.8c0-3.3 2.3-5.5 4.9-5.5 2.1 0 3.5 1.3 3.5 2.3 0 .5-.3.8-.7.8-.4 0-.7-.3-.7-.7 0-.3.1-.5.3-.6-.4-.5-1.3-1.1-2.5-1.1-2.4 0-4 2.1-4 4.7 0 2.7 1.7 4.5 3.9 4.5 1.1 0 2.1-.4 3-1.1v-2.4h-2.7V78h3.6v4.9h-.8V82c-.9.7-1.9 1.1-3.1 1.1-2.4 0-4.7-2-4.7-5.3zM227 82.1h1.3v-8.8H227v-.8h6.8v2.3h-.8v-1.6h-3.9v3.9h3.2v.9h-3.2v4.1h3.9v-1.6h.8v2.3H227v-.7z"/></g><g><path class="st0" d="M323.4 78c0-3.2 2.3-5.4 4.8-5.4 1.9 0 3.5 1.3 3.5 2.6 0 .5-.3.9-.8.9-.4 0-.6-.3-.6-.7 0-.3.2-.6.5-.7-.3-.5-1.2-1.3-2.6-1.3-2.3 0-3.9 2.2-3.9 4.6 0 2.3 1.6 4.5 4 4.5 1.2 0 2.1-.4 3-1.3l.4.6c-1 1-2.3 1.5-3.5 1.5-3 0-4.8-2.6-4.8-5.3zM335 82.3h1l3-8.8h-1.1v-.8h3.9v.8h-1.1l3 8.8h1v.8h-3v-.8h1.1l-1-2.9h-4l-1 2.9h1.2v.8h-3v-.8zm6.6-3.7l-1.7-5.2-1.8 5.2h3.5zM349.3 82.3h1.3v-8.8h-2.7v1.7h-.8v-2.4h7.8v2.4h-.8v-1.7h-2.7v8.8h1.3v.8h-3.5v-.8zM358.8 82.3h1.3v-8.8h-1.3v-.8h6.8V75h-.8v-1.6h-3.9v3.9h3.2v.8h-3.2v4.1h3.9v-1.6h.8v2.3h-6.8v-.6zM369.9 82.3h1.3v-8.8h-1.3v-.8h3.6c2.1 0 3.3 1.2 3.3 2.9 0 1.4-.9 2.4-2.2 2.9l2.2 3.8h1.2v.8h-1.7l-2.5-4.4h-1.7v3.6h1.3v.8H370v-.8zm6-6.6c0-1.4-1-2.2-2.6-2.2H372V78h1.3c1.5 0 2.6-.8 2.6-2.3zM381.2 82.3h1.3v-8.8h-1.3v-.8h3.5v.8h-1.3v8.8h1.3v.8h-3.5v-.8zM390.8 74.3v8h1.3v.8h-3.3v-.8h1.3v-8.8h-1.3v-.8h2l5.9 8.5v-7.7h-1.3v-.8h3.3v.8h-1.2v9.6h-.5l-6.2-8.8zM402.5 78.1c0-3.3 2.3-5.5 4.9-5.5 2.1 0 3.5 1.3 3.5 2.3 0 .5-.3.8-.7.8-.4 0-.7-.3-.7-.7 0-.3.1-.5.3-.6-.4-.5-1.3-1.1-2.5-1.1-2.4 0-4 2.1-4 4.7 0 2.7 1.7 4.5 3.9 4.5 1.1 0 2.1-.4 3-1.1V79h-2.7v-.8h3.6v4.9h-.8v-.9c-.9.7-1.9 1.1-3.1 1.1-2.5 0-4.7-2-4.7-5.2z"/></g></svg>